<?xml version="1.0" encoding="UTF-8" standalone="no"?>
<!DOCTYPE svg PUBLIC "-//W3C//DTD SVG 1.1//EN" "http://www.w3.org/Graphics/SVG/1.1/DTD/svg11.dtd">
<svg width="100%" height="100%" viewBox="0 0 2601 2635" version="1.1" xmlns="http://www.w3.org/2000/svg" xmlns:xlink="http://www.w3.org/1999/xlink" xml:space="preserve" xmlns:serif="http://www.serif.com/" style="fill-rule:evenodd;clip-rule:evenodd;stroke-linecap:round;stroke-linejoin:round;stroke-miterlimit:1.5;">
    <g transform="matrix(1,0,0,1,-779.051,-66.115)">
        <g transform="matrix(2.77103,0,0,0.803975,0,0)">
            <g transform="matrix(0.360876,0,0,1.24382,-38.5646,-59.9995)">
                <path d="M1529.84,335.858C299.167,813.189 2519.74,2540.63 1259.87,1944.44C0,1348.25 2677.22,43.388 3003.44,1168.27C3329.65,2293.15 854.911,1955.69 2553.48,2529.38C4252.06,3103.07 3205.91,2191.91 2092.28,1410.12C978.648,628.327 2639.58,-94.566 1529.84,335.858Z" style="fill:none;stroke:rgb(97,97,97);stroke-width:78.12px;"/>
            </g>
        </g>
        <g transform="matrix(2.77103,0,0,0.803975,0,0)">
            <g transform="matrix(0.360876,0,0,1.24382,0,0)">
                <path d="M1587.4,1595.73C1587.4,1595.73 2138.59,2506.88 1126.19,2079.43" style="fill:none;stroke:rgb(255,123,0);stroke-width:78.12px;"/>
            </g>
        </g>
        <g transform="matrix(2.77103,0,0,0.803975,0,0)">
            <g transform="matrix(0.360876,0,0,1.24382,0,0)">
                <path d="M1372.36,1235.76C1372.36,1235.76 2126.03,808.308 2564.73,1100.78" style="fill:none;stroke:rgb(157,0,104);stroke-width:78.12px;"/>
            </g>
        </g>
        <g transform="matrix(2.77103,0,0,0.803975,0,0)">
            <g transform="matrix(0.360876,0,0,1.24382,0,0)">
                <path d="M2197.33,2193.53C2509.8,2323.53 2847.26,2431.89 3014.75,2445.64" style="fill:none;stroke:rgb(0,136,255);stroke-width:78.12px;"/>
            </g>
        </g>
        <g transform="matrix(2.77103,0,0,0.803975,0,0)">
            <g transform="matrix(0.360175,0.0774843,-0.0224809,1.2414,51.5488,-237.22)">
                <path d="M2204.5,158.875C1974.62,208.03 1743.79,597.472 1794.87,573.332C1992.16,480.098 2638.54,459.585 2854.78,750.825" style="fill:none;stroke:rgb(0,79,170);stroke-width:78.12px;"/>
            </g>
        </g>
        <g transform="matrix(2.77103,0,0,0.803975,0,0)">
            <g transform="matrix(0.360876,0,0,1.24382,0,0)">
                <path d="M2333.04,1356.4L2606.04,1595.73C2606.04,1595.73 2804.04,1415.75 2708.04,1235.76" style="fill:none;stroke:rgb(255,43,61);stroke-width:78.12px;"/>
            </g>
        </g>
    </g>
</svg>
