<svg xmlns="http://www.w3.org/2000/svg" viewBox="0 0 307.76 320.44"><defs><style>.cls-1{fill:#b2d3ea;}.cls-2{fill:#173d7a;}.cls-3{fill:#396caa;}.cls-4{fill:#274f89;}.cls-5{fill:#d4ecff;}.cls-6{fill:#fff;}.cls-7{fill:#5793ce;}.cls-8{fill:#e8a200;}.cls-9{fill:#fdd762;}.cls-10{fill:#983be9;}.cls-11{fill:#ffc2b0;}.cls-12{fill:#ea9c92;}.cls-13{fill:#ff2c9c;}.cls-14{fill:#6614cf;}</style></defs><title>tyuy</title><g id="Layer_2" data-name="Layer 2"><g id="Ñëîé_1" data-name="Ñëîé 1"><path class="cls-1" d="M263.75,253.69,122.43,172.11c-4-2.31-11-2-15.59.64L10.61,228.29C6,231,5.49,235,9.49,237.29l48.59,28a26,26,0,0,0-10.54,3.07c-7.4,4.28-7.4,11.21,0,15.48s19.4,4.27,26.8,0c3-1.72,4.73-3.86,5.32-6.09l11.48,6.63a23.69,23.69,0,0,0-6.56,2.49c-7.56,4.36-7.56,11.43,0,15.79s19.79,4.36,27.34,0a12.92,12.92,0,0,0,4.31-3.79l34.58,20c4,2.31,11,2,15.6-.64l96.22-55.54C267.25,260,267.75,256,263.75,253.69Z"/><path class="cls-2" d="M302.08,85.88,154.91.91a5.93,5.93,0,0,0-5-.61v0l-.27.1-.06,0-5.32,2,4.77,2.34c0,.09-.05.17-.07.26L125,114.16c-1.2,5.46,1.2,11.84,5.37,14.24L274,211.33l-.51,6.09,5.81-2.25c2-.92,3.52-3,4.17-5.93l24-109.12C308.65,94.66,306.25,88.29,302.08,85.88Z"/><path class="cls-3" d="M302.08,85.88,154.91.91a5.93,5.93,0,0,0-5-.61v0l-.27.1-.06,0-5.32,2,4.77,2.34c0,.09-.05.17-.07.26L133.18,77l72,56.1L306.73,91.75A11.44,11.44,0,0,0,302.08,85.88Z"/><path class="cls-4" d="M296.53,102.66l11.21-4.77c.2-4.34-1.59-8.83-4.54-11.22l-17.74,7.46Z"/><path class="cls-5" d="M268.39,216.84l-147.18-85c-4.16-2.41-6.56-8.78-5.36-14.24l24-109.12C141,3,145.37.57,149.53,3l147.17,85c4.17,2.41,6.57,8.78,5.37,14.24l-24,109.12C276.9,216.77,272.55,219.24,268.39,216.84Z"/><path class="cls-6" d="M265.2,208.72,126.78,128.85c-3.81-2.2-6-8-4.91-13L143.81,16c1.1-5,5.07-7.26,8.88-5.06L291.11,90.77c3.81,2.2,6,8,4.91,13l-21.94,99.86C273,208.66,269,210.92,265.2,208.72Z"/><path class="cls-6" d="M265.2,208.72,126.78,128.85c-3.81-2.2-6-8-4.91-13L143.81,16c1.1-5,5.07-7.26,8.88-5.06L291.11,90.77c3.81,2.2,6,8,4.91,13l-21.94,99.86C273,208.66,269,210.92,265.2,208.72Z"/><path class="cls-2" d="M270.42,220.54l-20.12-2.66-129.86-75c-4.17-2.41-11.44-2.11-16.25.67l-92,53.11L0,195.08V202H0c-.08,1.59.83,3.13,2.79,4.26l147.18,85c4.16,2.41,11.43,2.11,16.24-.67l100.22-57.84c2.7-1.56,4.05-3.57,4-5.46h0Z"/><path class="cls-3" d="M172.84,173.16l-9.22-5.32H62.18l-50,28.85L0,195.08V202H0c-.08,1.59.83,3.13,2.79,4.26l147.18,85a15.2,15.2,0,0,0,8.38,1.57Z"/><path class="cls-7" d="M5.4,195.8,0,195.08V202H0c-.08,1.59.83,3.13,2.79,4.26l2.59,1.5Z"/><path class="cls-4" d="M151.47,291.91a18.82,18.82,0,0,0,13.8-.86V275.66h-13.8Z"/><path class="cls-5" d="M150,284.33l-147.18-85C-1.35,197-.83,192.75,4,190l100.21-57.84c4.81-2.78,12.08-3.08,16.25-.68l147.17,85c4.17,2.4,3.64,6.6-1.16,9.38L166.23,283.66C161.42,286.43,154.15,286.73,150,284.33Z"/><path class="cls-2" d="M65.41,171.23l-6.66-3.85c-.54-.31-.47-.85.15-1.2l7.86-4.54a2.29,2.29,0,0,1,2.08-.09l6.66,3.85c.54.31.47.84-.15,1.2l-7.86,4.54A2.32,2.32,0,0,1,65.41,171.23Z"/><path class="cls-2" d="M75.69,177.16,69,173.32c-.53-.31-.47-.85.15-1.21L77,167.58a2.31,2.31,0,0,1,2.09-.09l6.66,3.84c.53.31.46.85-.15,1.21l-7.86,4.54A2.34,2.34,0,0,1,75.69,177.16Z"/><path class="cls-2" d="M86,183.1l-6.65-3.84c-.54-.31-.47-.85.14-1.21l7.86-4.54a2.34,2.34,0,0,1,2.09-.08l6.66,3.84c.53.31.47.85-.15,1.21L88.06,183A2.31,2.31,0,0,1,86,183.1Z"/><path class="cls-2" d="M100.2,178.2l-6.66-3.85c-.54-.31-.47-.85.15-1.2l6.6-3.81a2.29,2.29,0,0,1,2.08-.09L109,173.1c.54.31.47.84-.15,1.2l-6.6,3.81A2.29,2.29,0,0,1,100.2,178.2Z"/><path class="cls-2" d="M110.48,184.13l-6.66-3.84c-.53-.31-.47-.85.15-1.2l6.6-3.81a2.31,2.31,0,0,1,2.09-.09l6.65,3.84c.54.31.47.85-.15,1.21l-6.59,3.81A2.34,2.34,0,0,1,110.48,184.13Z"/><path class="cls-2" d="M120.76,190.07l-6.65-3.84c-.54-.31-.47-.85.15-1.21l6.59-3.81a2.34,2.34,0,0,1,2.09-.08L129.6,185c.53.31.47.85-.15,1.21l-6.6,3.81A2.34,2.34,0,0,1,120.76,190.07Z"/><path class="cls-2" d="M131.05,196l-6.66-3.85c-.54-.3-.47-.84.15-1.2l6.6-3.81a2.32,2.32,0,0,1,2.08-.09l6.66,3.85c.54.31.47.85-.15,1.2l-6.6,3.81A2.29,2.29,0,0,1,131.05,196Z"/><path class="cls-2" d="M141.33,202l-6.66-3.85c-.53-.31-.46-.85.15-1.2l6.6-3.81a2.31,2.31,0,0,1,2.09-.09l6.66,3.85c.53.3.46.84-.15,1.2l-6.6,3.81A2.31,2.31,0,0,1,141.33,202Z"/><path class="cls-2" d="M151.62,207.88,145,204c-.54-.31-.47-.85.15-1.21l6.59-3.8a2.31,2.31,0,0,1,2.09-.09l6.66,3.84c.53.31.47.85-.15,1.21l-6.6,3.81A2.32,2.32,0,0,1,151.62,207.88Z"/><path class="cls-2" d="M161.9,213.82,155.24,210c-.53-.31-.47-.85.15-1.21L162,205a2.32,2.32,0,0,1,2.08-.08l6.66,3.84c.54.31.47.85-.15,1.21l-6.59,3.8A2.31,2.31,0,0,1,161.9,213.82Z"/><path class="cls-2" d="M172.18,219.76l-6.66-3.85c-.53-.31-.46-.84.15-1.2l6.6-3.81a2.31,2.31,0,0,1,2.09-.09l6.66,3.85c.53.31.46.85-.15,1.2l-6.6,3.81A2.31,2.31,0,0,1,172.18,219.76Z"/><path class="cls-2" d="M182.47,225.7l-6.66-3.85c-.54-.31-.47-.85.15-1.2l6.6-3.81a2.29,2.29,0,0,1,2.08-.09l6.66,3.85c.54.3.47.84-.15,1.2l-6.6,3.81A2.32,2.32,0,0,1,182.47,225.7Z"/><path class="cls-2" d="M192.75,231.63l-6.66-3.84c-.53-.31-.47-.85.15-1.21l6.6-3.81a2.34,2.34,0,0,1,2.09-.08l6.65,3.84c.54.31.47.85-.15,1.21l-6.59,3.81A2.34,2.34,0,0,1,192.75,231.63Z"/><path class="cls-3" d="M115.35,175.39l-6.66-3.85c-.53-.31-.47-.85.15-1.2l6.6-3.81a2.29,2.29,0,0,1,2.08-.09l6.66,3.85c.54.3.47.84-.15,1.2l-6.59,3.81A2.34,2.34,0,0,1,115.35,175.39Z"/><path class="cls-3" d="M104.91,169.36l-6.66-3.84c-.53-.31-.46-.85.15-1.21l6.6-3.81a2.34,2.34,0,0,1,2.09-.08l6.66,3.84c.53.31.46.85-.15,1.2l-6.6,3.81A2.31,2.31,0,0,1,104.91,169.36Z"/><path class="cls-2" d="M94.46,163.32,80.12,155c-.54-.3-.47-.84.15-1.2L86.86,150a2.34,2.34,0,0,1,2.09-.09l14.34,8.28c.54.31.47.85-.15,1.21l-6.6,3.81A2.32,2.32,0,0,1,94.46,163.32Z"/><path class="cls-2" d="M101.77,156l-11.64-6.72c-.54-.3-.47-.84.15-1.2l6.59-3.81a2.34,2.34,0,0,1,2.09-.09l11.64,6.72c.53.31.47.85-.15,1.21l-6.6,3.81A2.32,2.32,0,0,1,101.77,156Z"/><path class="cls-3" d="M125.63,181.32,119,177.48c-.53-.31-.46-.85.15-1.21l6.6-3.8a2.31,2.31,0,0,1,2.09-.09l6.66,3.84c.53.31.46.85-.15,1.21l-6.6,3.81A2.34,2.34,0,0,1,125.63,181.32Z"/><path class="cls-2" d="M135.92,187.26l-6.66-3.84c-.54-.31-.47-.85.15-1.21l6.6-3.81a2.32,2.32,0,0,1,2.08-.08l6.66,3.84c.54.31.47.85-.15,1.2l-6.6,3.81A2.29,2.29,0,0,1,135.92,187.26Z"/><path class="cls-2" d="M146.2,193.2l-6.66-3.85c-.53-.31-.47-.84.15-1.2l6.6-3.81a2.31,2.31,0,0,1,2.09-.09L155,188.1c.54.31.47.85-.15,1.2l-6.59,3.81A2.31,2.31,0,0,1,146.2,193.2Z"/><path class="cls-2" d="M156.48,199.14l-6.65-3.85c-.54-.31-.47-.85.14-1.2l6.6-3.81a2.31,2.31,0,0,1,2.09-.09l6.66,3.85c.53.3.47.84-.15,1.2l-6.6,3.81A2.34,2.34,0,0,1,156.48,199.14Z"/><path class="cls-2" d="M166.77,205.07l-6.66-3.84c-.54-.31-.47-.85.15-1.21l6.6-3.81a2.32,2.32,0,0,1,2.08-.08L175.6,200c.54.31.47.85-.15,1.21l-6.6,3.81A2.32,2.32,0,0,1,166.77,205.07Z"/><path class="cls-2" d="M177.05,211l-6.66-3.84c-.53-.31-.47-.85.15-1.21l6.6-3.81a2.34,2.34,0,0,1,2.09-.08l6.66,3.84c.53.31.46.85-.15,1.2l-6.6,3.81A2.31,2.31,0,0,1,177.05,211Z"/><path class="cls-2" d="M187.34,217l-6.66-3.85c-.54-.31-.47-.85.15-1.2l6.59-3.81a2.31,2.31,0,0,1,2.09-.09l6.66,3.85c.53.31.47.84-.15,1.2l-6.6,3.81A2.29,2.29,0,0,1,187.34,217Z"/><path class="cls-2" d="M197.62,222.88,191,219c-.53-.31-.47-.85.15-1.2l6.6-3.81a2.29,2.29,0,0,1,2.08-.09l6.66,3.84c.54.31.47.85-.15,1.21l-6.6,3.81A2.32,2.32,0,0,1,197.62,222.88Z"/><path class="cls-2" d="M207.9,228.82,201.24,225c-.53-.31-.46-.85.15-1.21L208,220a2.34,2.34,0,0,1,2.09-.08l6.66,3.84c.53.31.46.85-.15,1.21l-6.6,3.81A2.34,2.34,0,0,1,207.9,228.82Z"/><path class="cls-2" d="M226.18,239.38,211.66,231c-.54-.31-.47-.85.14-1.21l6.6-3.81a2.34,2.34,0,0,1,2.09-.08L235,234.28c.53.31.47.84-.15,1.2l-6.6,3.81A2.31,2.31,0,0,1,226.18,239.38Z"/><path class="cls-2" d="M246.21,227.82l-12.27-7.08c-.53-.31-.47-.85.15-1.21l6.6-3.81a2.34,2.34,0,0,1,2.09-.08L255,222.72c.53.31.47.85-.15,1.2l-6.6,3.81A2.29,2.29,0,0,1,246.21,227.82Z"/><path class="cls-2" d="M143.64,180.16,137,176.32c-.53-.31-.46-.85.15-1.21l6.6-3.81a2.34,2.34,0,0,1,2.09-.08l6.66,3.84c.53.31.46.85-.15,1.21l-6.6,3.81A2.34,2.34,0,0,1,143.64,180.16Z"/><path class="cls-2" d="M133.1,174.08l-6.66-3.85c-.53-.31-.46-.85.15-1.2l6.6-3.81a2.31,2.31,0,0,1,2.09-.09l6.66,3.85c.53.31.46.84-.15,1.2l-6.6,3.81A2.31,2.31,0,0,1,133.1,174.08Z"/><path class="cls-3" d="M122.56,168l-6.66-3.84c-.53-.31-.46-.85.15-1.21l6.6-3.81a2.34,2.34,0,0,1,2.09-.08l6.66,3.84c.53.31.46.85-.15,1.21l-6.6,3.81A2.34,2.34,0,0,1,122.56,168Z"/><path class="cls-2" d="M112,161.91l-6.66-3.85c-.53-.31-.46-.85.15-1.2l6.6-3.81a2.31,2.31,0,0,1,2.09-.09l6.66,3.85c.53.31.47.84-.15,1.2l-6.6,3.81A2.31,2.31,0,0,1,112,161.91Z"/><path class="cls-2" d="M153.93,186.1l-6.66-3.85c-.54-.3-.47-.84.15-1.2l6.59-3.81a2.34,2.34,0,0,1,2.09-.09l6.66,3.85c.53.31.47.85-.15,1.2L156,186A2.29,2.29,0,0,1,153.93,186.1Z"/><path class="cls-2" d="M164.21,192l-6.66-3.85c-.53-.31-.47-.85.15-1.2l6.6-3.81a2.29,2.29,0,0,1,2.08-.09l6.66,3.85c.54.3.47.84-.15,1.2L166.3,192A2.31,2.31,0,0,1,164.21,192Z"/><path class="cls-2" d="M174.49,198l-6.66-3.84c-.53-.31-.46-.85.15-1.21l6.6-3.8a2.31,2.31,0,0,1,2.09-.09l6.66,3.84c.53.31.46.85-.15,1.21l-6.6,3.81A2.34,2.34,0,0,1,174.49,198Z"/><path class="cls-2" d="M184.78,203.91l-6.66-3.84c-.54-.31-.47-.85.15-1.21l6.6-3.81A2.32,2.32,0,0,1,187,195l6.66,3.84c.54.31.47.85-.15,1.21l-6.6,3.8A2.29,2.29,0,0,1,184.78,203.91Z"/><path class="cls-2" d="M195.06,209.85,188.4,206c-.53-.31-.47-.84.15-1.2l6.6-3.81a2.31,2.31,0,0,1,2.09-.09l6.65,3.85c.54.31.47.85-.15,1.2l-6.59,3.81A2.31,2.31,0,0,1,195.06,209.85Z"/><path class="cls-2" d="M205.34,215.79l-6.65-3.85c-.54-.31-.47-.85.14-1.2l6.6-3.81a2.31,2.31,0,0,1,2.09-.09l6.66,3.85c.53.3.47.84-.15,1.2l-6.6,3.81A2.34,2.34,0,0,1,205.34,215.79Z"/><path class="cls-2" d="M215.63,221.72,209,217.88c-.54-.31-.47-.85.15-1.21l6.6-3.81a2.32,2.32,0,0,1,2.08-.08l6.66,3.84c.54.31.47.85-.15,1.21l-6.6,3.81A2.32,2.32,0,0,1,215.63,221.72Z"/><path class="cls-2" d="M225.91,227.66l-6.66-3.84c-.53-.31-.47-.85.15-1.21l6.6-3.81a2.34,2.34,0,0,1,2.09-.08l6.66,3.84c.53.31.46.85-.15,1.2l-6.6,3.81A2.31,2.31,0,0,1,225.91,227.66Z"/><path class="cls-2" d="M236.2,233.6l-6.66-3.85c-.54-.31-.47-.85.15-1.2l6.59-3.81a2.31,2.31,0,0,1,2.09-.09L245,228.5c.53.31.47.85-.15,1.2l-6.6,3.81A2.29,2.29,0,0,1,236.2,233.6Z"/><path class="cls-2" d="M138.23,165.48l-6.66-3.85c-.54-.31-.47-.85.15-1.2l6.6-3.81a2.29,2.29,0,0,1,2.08-.09l6.66,3.85c.54.3.47.84-.15,1.2l-6.6,3.81A2.32,2.32,0,0,1,138.23,165.48Z"/><path class="cls-2" d="M128,159.57l-6.65-3.85c-.54-.3-.47-.84.15-1.2l6.59-3.81a2.31,2.31,0,0,1,2.09-.09l6.66,3.85c.53.31.47.85-.15,1.2l-6.6,3.81A2.31,2.31,0,0,1,128,159.57Z"/><path class="cls-2" d="M117.76,153.66l-6.66-3.84c-.53-.31-.46-.85.15-1.21l6.6-3.81a2.34,2.34,0,0,1,2.09-.08l6.66,3.84c.53.31.46.85-.15,1.2l-6.6,3.81A2.31,2.31,0,0,1,117.76,153.66Z"/><path class="cls-2" d="M107.53,147.75l-6.66-3.84c-.53-.31-.47-.85.15-1.21l6.6-3.81a2.32,2.32,0,0,1,2.08-.08l6.66,3.84c.54.31.47.85-.15,1.21l-6.59,3.81A2.34,2.34,0,0,1,107.53,147.75Z"/><path class="cls-2" d="M118.05,141.68l-6.66-3.85c-.53-.31-.47-.84.15-1.2l2.18-1.26a2.31,2.31,0,0,1,2.09-.09l6.66,3.85c.53.31.47.85-.15,1.2l-2.18,1.26A2.31,2.31,0,0,1,118.05,141.68Z"/><path class="cls-2" d="M131.41,149.39l-6.66-3.85c-.54-.31-.47-.84.15-1.2l2.18-1.26a2.29,2.29,0,0,1,2.08-.09l6.66,3.85c.54.31.47.85-.15,1.2l-2.18,1.26A2.29,2.29,0,0,1,131.41,149.39Z"/><path class="cls-2" d="M141.59,155.27l-6.65-3.84c-.54-.31-.47-.85.15-1.21l2.18-1.26a2.32,2.32,0,0,1,2.08-.08l6.66,3.84c.54.31.47.85-.15,1.21l-2.18,1.25A2.31,2.31,0,0,1,141.59,155.27Z"/><path class="cls-2" d="M151.78,161.15l-6.65-3.84c-.54-.31-.47-.85.15-1.21l2.18-1.25a2.29,2.29,0,0,1,2.08-.09l6.66,3.84c.54.31.47.85-.15,1.21l-2.18,1.26A2.34,2.34,0,0,1,151.78,161.15Z"/><path class="cls-2" d="M162,167l-6.65-3.85c-.54-.31-.47-.85.15-1.2l2.18-1.26a2.29,2.29,0,0,1,2.08-.09l6.66,3.85c.54.31.47.84-.15,1.2L164.06,167A2.31,2.31,0,0,1,162,167Z"/><path class="cls-2" d="M218.86,199.88,212.2,196c-.53-.31-.46-.85.15-1.21l2.19-1.26a2.32,2.32,0,0,1,2.08-.08l6.66,3.84c.54.31.47.85-.15,1.21L221,199.8A2.34,2.34,0,0,1,218.86,199.88Z"/><path class="cls-2" d="M229.05,205.76l-6.66-3.84c-.53-.31-.46-.85.15-1.2l2.19-1.26a2.29,2.29,0,0,1,2.08-.09l6.66,3.84c.53.31.47.85-.15,1.21l-2.18,1.26A2.34,2.34,0,0,1,229.05,205.76Z"/><path class="cls-2" d="M239.24,211.65l-6.66-3.85c-.53-.31-.46-.84.15-1.2l2.19-1.26a2.29,2.29,0,0,1,2.08-.09l6.66,3.85c.53.31.47.85-.15,1.2l-2.18,1.26A2.31,2.31,0,0,1,239.24,211.65Z"/><path class="cls-2" d="M249.43,217.53l-6.66-3.84c-.53-.31-.46-.85.15-1.21l2.18-1.26a2.34,2.34,0,0,1,2.09-.08l6.66,3.84c.53.31.47.85-.15,1.21l-2.18,1.25A2.31,2.31,0,0,1,249.43,217.53Z"/><path class="cls-2" d="M148.51,171.41l-6.66-3.84c-.53-.31-.47-.85.15-1.21l6.6-3.8a2.31,2.31,0,0,1,2.09-.09l6.65,3.84c.54.31.47.85-.15,1.21l-6.59,3.81A2.34,2.34,0,0,1,148.51,171.41Z"/><path class="cls-2" d="M158.79,177.35l-6.65-3.84c-.54-.31-.47-.85.15-1.21l6.59-3.81a2.34,2.34,0,0,1,2.09-.08l6.66,3.84c.53.31.47.85-.15,1.21l-6.6,3.8A2.31,2.31,0,0,1,158.79,177.35Z"/><path class="cls-2" d="M169.08,183.29l-6.66-3.85c-.54-.31-.47-.84.15-1.2l6.6-3.81a2.29,2.29,0,0,1,2.08-.09l6.66,3.85c.54.31.47.85-.15,1.2l-6.6,3.81A2.29,2.29,0,0,1,169.08,183.29Z"/><path class="cls-2" d="M179.36,189.23l-6.66-3.85c-.53-.31-.46-.85.15-1.2l6.6-3.81a2.31,2.31,0,0,1,2.09-.09l6.66,3.85c.53.3.46.84-.15,1.2l-6.6,3.81A2.34,2.34,0,0,1,179.36,189.23Z"/><path class="cls-2" d="M189.65,195.16,183,191.32c-.54-.31-.47-.85.15-1.21l6.59-3.81a2.34,2.34,0,0,1,2.09-.08l6.66,3.84c.53.31.47.85-.15,1.21l-6.6,3.81A2.32,2.32,0,0,1,189.65,195.16Z"/><path class="cls-2" d="M199.93,201.1l-6.66-3.84c-.53-.31-.47-.85.15-1.21l6.6-3.81a2.32,2.32,0,0,1,2.08-.08l6.66,3.84c.54.31.47.85-.15,1.2L202,201A2.31,2.31,0,0,1,199.93,201.1Z"/><path class="cls-2" d="M210.21,207l-6.66-3.85c-.53-.31-.46-.85.15-1.2l6.6-3.81a2.31,2.31,0,0,1,2.09-.09l6.66,3.85c.53.31.46.85-.15,1.2L212.3,207A2.31,2.31,0,0,1,210.21,207Z"/><path class="cls-2" d="M220.5,213l-6.66-3.84c-.54-.31-.47-.85.15-1.2l6.6-3.81a2.29,2.29,0,0,1,2.08-.09l6.66,3.84c.54.31.47.85-.15,1.21l-6.6,3.81A2.32,2.32,0,0,1,220.5,213Z"/><path class="cls-2" d="M230.78,218.91l-6.66-3.84c-.53-.31-.47-.85.15-1.21l6.6-3.81A2.34,2.34,0,0,1,233,210l6.65,3.84c.54.31.47.85-.15,1.21l-6.59,3.81A2.34,2.34,0,0,1,230.78,218.91Z"/><path class="cls-2" d="M89.72,172.15,70.11,160.82c-.54-.3-.47-.84.15-1.2l6.59-3.81a2.31,2.31,0,0,1,2.09-.09l19.61,11.33c.54.31.47.84-.15,1.2l-6.6,3.81A2.29,2.29,0,0,1,89.72,172.15Z"/><path class="cls-2" d="M216.05,245.09l-19.61-11.33c-.53-.3-.46-.84.15-1.2l6.6-3.81a2.34,2.34,0,0,1,2.09-.09L224.89,240c.53.31.47.85-.15,1.2l-6.6,3.81A2.31,2.31,0,0,1,216.05,245.09Z"/><path class="cls-2" d="M174.93,234.46l-6.66-3.85c-.53-.3-.47-.84.15-1.2l7.86-4.54a2.34,2.34,0,0,1,2.09-.08l6.65,3.84c.54.31.47.85-.14,1.2L177,234.37A2.29,2.29,0,0,1,174.93,234.46Z"/><path class="cls-2" d="M100.25,191.34,89.6,185.19c-.54-.31-.47-.84.15-1.2l7.86-4.54a2.32,2.32,0,0,1,2.08-.09l10.65,6.15c.54.31.47.85-.15,1.21l-7.86,4.54A2.32,2.32,0,0,1,100.25,191.34Z"/><path class="cls-2" d="M165,228.74l-10.65-6.15c-.53-.31-.47-.85.15-1.21l7.86-4.53a2.31,2.31,0,0,1,2.09-.09l10.65,6.15c.53.31.46.85-.15,1.2l-7.86,4.54A2.31,2.31,0,0,1,165,228.74Z"/><path class="cls-2" d="M115.09,199.91l-10.65-6.15c-.54-.31-.47-.85.15-1.21l7.86-4.53a2.29,2.29,0,0,1,2.08-.09l10.65,6.15c.54.31.47.85-.15,1.2l-7.86,4.54A2.29,2.29,0,0,1,115.09,199.91Z"/><path class="cls-2" d="M114.6,188l46.31,26.73a.64.64,0,0,1,0,1.21l-8,4.62a2.25,2.25,0,0,1-2.08,0l-46.3-26.73Z"/><path class="cls-2" d="M203.67,245.22l7.42,4.29c.44.25.38.69-.12,1l-3.22,1.86a1.92,1.92,0,0,1-1.71.07l-7.42-4.28c-.44-.26-.38-.7.13-1l3.21-1.86A1.92,1.92,0,0,1,203.67,245.22Z"/><path class="cls-2" d="M193.3,239.24l7.42,4.28c.44.25.38.69-.12,1l-3.22,1.85a1.86,1.86,0,0,1-1.71.07l-7.42-4.28c-.43-.25-.38-.69.13-1l3.21-1.85A1.89,1.89,0,0,1,193.3,239.24Z"/><path class="cls-2" d="M183,233.3l7.42,4.28c.43.26.38.7-.13,1l-3.21,1.86a1.92,1.92,0,0,1-1.71.07L178,236.21c-.44-.25-.38-.69.12-1l3.22-1.86A1.92,1.92,0,0,1,183,233.3Z"/><path class="cls-2" d="M199,236l7.42,4.28c.44.25.38.7-.12,1l-3.22,1.85a1.89,1.89,0,0,1-1.71.08l-7.42-4.29c-.44-.25-.38-.69.13-1l3.21-1.86A1.92,1.92,0,0,1,199,236Z"/><path class="cls-2" d="M110.08,288s-3-1.52-4.88.75-4.5,7.62-4.59,11.24,2.87,3.37,4.62,2.51,6.86-8.27,7.17-9.73a5.06,5.06,0,0,0-.85-3.8C111.05,288.54,110.08,288,110.08,288Z"/><path class="cls-8" d="M110.74,287.22l.14,3.13A1.78,1.78,0,0,1,110,292a3.45,3.45,0,0,1-2.33.36c-2.27-.36-2.48-1-2.64-4.14S110.74,287.22,110.74,287.22Z"/><path class="cls-2" d="M99,281.93s-3-1.52-4.87.75-4.51,7.62-4.59,11.24,2.86,3.37,4.61,2.52,6.87-8.28,7.18-9.73a5.07,5.07,0,0,0-.86-3.81C100,282.52,99,281.93,99,281.93Z"/><path class="cls-8" d="M99.68,281.21l.14,3.13a1.76,1.76,0,0,1-.88,1.62,3.52,3.52,0,0,1-2.33.37c-2.28-.37-2.48-1-2.64-4.15S99.68,281.21,99.68,281.21Z"/><path class="cls-9" d="M126.63,223.75c-.89-14.55-15.75,2.14-15.75,2.14l-10.17,10-9.16,10.06a9,9,0,0,0-2.27,7.25L93,281.38a2.78,2.78,0,0,0,2.78,2.41,9.08,9.08,0,0,0,1.37-.12A3.45,3.45,0,0,0,100.2,280l-.68-26.38L118.75,242S127.53,238.3,126.63,223.75Z"/><path class="cls-9" d="M137.69,229.29c-.89-14.54-15.75,2.14-15.75,2.14l-10.17,10-9.16,10.06a9.05,9.05,0,0,0-2.28,7.25L104,286.92a2.76,2.76,0,0,0,2.78,2.41,9.08,9.08,0,0,0,1.37-.12,3.43,3.43,0,0,0,3.06-3.65l-.67-26.39,19.23-11.59S138.58,243.84,137.69,229.29Z"/><path class="cls-10" d="M128.9,182.6c11.27,4.67,11,11.33,11,11.33s-2.21,24.41-1.45,40.72c.31,6.81-36.22,7.33-30.77-10.85,6.42-21.44,4-38.8,7-41.42S126,181.39,128.9,182.6Z"/><path class="cls-11" d="M132.52,188.5c-.58,2.29-3.58,3.5-6.69,2.7s-5.15-3.31-4.56-5.6,3.59-3.49,6.69-2.69S133.11,186.22,132.52,188.5Z"/><path class="cls-6" d="M127.73,192a8.5,8.5,0,0,1-2-.26c-3.39-.88-5.61-3.68-5-6.25a4.31,4.31,0,0,1,2.72-2.87,7.48,7.48,0,0,1,4.63-.21c3.39.87,5.61,3.68,5,6.25h0C132.52,190.69,130.32,192,127.73,192ZM126,183.2a5.74,5.74,0,0,0-2.17.4,3.25,3.25,0,0,0-2.08,2.14c-.51,2,1.36,4.21,4.18,4.93s5.52-.3,6-2.3-1.36-4.21-4.17-4.94A7.45,7.45,0,0,0,126,183.2Z"/><path class="cls-11" d="M124.38,182.09a27.27,27.27,0,0,1-.09,4c-.07,1.12,3.86,2.17,4.88,1.16s.61-2.08.85-5.9S124.38,182.09,124.38,182.09Z"/><path class="cls-12" d="M130,181.37s-1,3.55-5.74,4.9l.08-3.21Z"/><path class="cls-11" d="M133,172.38a8.67,8.67,0,1,1-10.56-6.23A8.66,8.66,0,0,1,133,172.38Z"/><path class="cls-12" d="M126.64,174.87s-4.77,2-8.08,2.06-2.58-2.74-2.58-2.74l9.82-1.42Z"/><path class="cls-13" d="M117.58,175.4s4.15-1.76,7.8-1a3.8,3.8,0,0,1,2.21,1.31,1.33,1.33,0,0,0,.66.48c.65.14,1.71-2.54,3-2.6s2.1.83,1.06,2.48-.68,3.5-.2,3.76,5.5-3.59,1.06-12.38-15.71-4.06-17.46-2.27c0,0-1.85,1.6-3.35.17C112.33,165.33,110.64,178,117.58,175.4Z"/><path class="cls-11" d="M133.62,211.76v6.6a2.69,2.69,0,0,1-.88,2L119.19,232.7l1.54,2.36,17.82-12.24a3.64,3.64,0,0,0,1.48-2.57L141.32,208Z"/><path class="cls-10" d="M139,190.63s4.11,6.18,5.64,22.46c0,0-7,2.27-11,1S139,190.63,139,190.63Z"/><path class="cls-14" d="M132.87,198.45a114.25,114.25,0,0,0-1.7,12.66,2.58,2.58,0,0,0,1.7,2.5h0Z"/><path class="cls-2" d="M129.35,241.28l-3-.39L107,229.72a2.7,2.7,0,0,0-2.42.1l-13.7,7.91-1.81-.24v1.8h0a.72.72,0,0,0,.42.64l21.91,12.65a2.69,2.69,0,0,0,2.42-.1l14.92-8.61a1,1,0,0,0,.59-.82h0Z"/><path class="cls-3" d="M114.83,234.23l-1.38-.8H98.35l-7.45,4.3-1.81-.24v1.8h0a.72.72,0,0,0,.42.64l21.91,12.65a2.28,2.28,0,0,0,1.25.23Z"/><path class="cls-7" d="M89.9,237.6l-.81-.11v1.8h0a.72.72,0,0,0,.42.64l.39.22Z"/><path class="cls-4" d="M111.64,252.68a2.75,2.75,0,0,0,2.06-.13v-3.06h-2.06Z"/><path class="cls-6" d="M111.42,250.78,89.51,238.13c-.62-.36-.54-1,.17-1.4l14.92-8.61A2.7,2.7,0,0,1,107,228l21.92,12.65c.62.36.54,1-.18,1.4l-14.92,8.61A2.69,2.69,0,0,1,111.42,250.78Z"/><path class="cls-5" d="M111.05,248.86,92.83,238.34c-.51-.3-.45-.82.15-1.16l8-4.5a2.24,2.24,0,0,1,2-.08l18.22,10.52c.52.3.45.82-.14,1.16l-8,4.5A2.24,2.24,0,0,1,111.05,248.86Z"/><path class="cls-11" d="M105.45,227.7l-.22,1.52a11.18,11.18,0,0,0,.09,3.87l.27,1.33a1.89,1.89,0,0,0,1.5,1.48h0a1,1,0,0,0,1.22-.91l.36-3.23s.83,1.09,1.22,1.09-.44-3.24-1.34-5.07S105.45,227.7,105.45,227.7Z"/><path class="cls-11" d="M112.88,203.67l-2.35,4.66a9.06,9.06,0,0,0-1,3.53l-1,15.92-3.1-.08-1.4-17.87a6.08,6.08,0,0,1,.08-1.65l1.6-9.07Z"/><path class="cls-2" d="M110.68,252l-1.84-2.4L89.52,238.41a2.69,2.69,0,0,1-1.12-2.15l0-15.82L87.31,219l1-.6h0a.7.7,0,0,1,.76,0L111,231.11a2.69,2.69,0,0,1,1.12,2.15l0,17.22a1,1,0,0,1-.41.92h0Z"/><path class="cls-3" d="M97.32,242.92,96,242.13,88.41,229v-8.6L87.31,219l1-.6h0a.7.7,0,0,1,.76,0L111,231.11a2.28,2.28,0,0,1,.82,1Z"/><path class="cls-7" d="M87.8,219.64l-.49-.65,1-.6h0a.7.7,0,0,1,.76,0l.39.23Z"/><path class="cls-4" d="M111.21,231.25a2.83,2.83,0,0,1,.91,1.85L110,234.33l-1-1.78Z"/><path class="cls-6" d="M110,231.72,88.07,219c-.62-.36-1.12,0-1.13.84v17.23a2.67,2.67,0,0,0,1.12,2.15l21.89,12.68c.62.35,1.12,0,1.13-.85V233.86A2.63,2.63,0,0,0,110,231.72Z"/><path class="cls-11" d="M120.73,235.06l-.35.72a4.79,4.79,0,0,1-1.83,2l-2.18,1.34a2.16,2.16,0,0,1-2.22.06l-.07-.05a1.31,1.31,0,0,1-.18-2l2.27-2.34s-1.28,1-1.64.59,1.24-1.7,2.39-1.75a4.47,4.47,0,0,0,2.27-1Z"/><path class="cls-10" d="M115,182.35s-8.33,9.06-11.7,17.38a17,17,0,0,0,9.83,7.15C120.07,208.89,115,182.35,115,182.35Z"/><path class="cls-14" d="M111.53,206.34l1.35-13.05-3.18,12.23A18.29,18.29,0,0,0,111.53,206.34Z"/><path class="cls-6" d="M121.21,180.52,119,179.9A5.42,5.42,0,0,0,121.6,182c1.56.43,1.8-.89,1.8-.89Z"/><path class="cls-5" d="M185.48,59l-8.94-5.16a2.58,2.58,0,0,1-1.1-2.65h0a1.25,1.25,0,0,1,1.92-.91l8.94,5.16a2.56,2.56,0,0,1,1.09,2.64h0A1.24,1.24,0,0,1,185.48,59Z"/><path class="cls-5" d="M206.77,71.28l-13.18-7.61A2.55,2.55,0,0,1,192.5,61h0a1.24,1.24,0,0,1,1.91-.91l13.18,7.61a2.56,2.56,0,0,1,1.09,2.65h0A1.24,1.24,0,0,1,206.77,71.28Z"/><path class="cls-5" d="M169.89,100.72,161,95.56a2.56,2.56,0,0,1-1.09-2.65h0a1.25,1.25,0,0,1,1.91-.92l8.94,5.17a2.54,2.54,0,0,1,1.09,2.64h0A1.24,1.24,0,0,1,169.89,100.72Z"/><path class="cls-5" d="M188.87,111.68l-13.18-7.61a2.56,2.56,0,0,1-1.09-2.65h0a1.24,1.24,0,0,1,1.91-.91l13.19,7.61a2.56,2.56,0,0,1,1.09,2.64h0A1.25,1.25,0,0,1,188.87,111.68Z"/><path class="cls-5" d="M159.1,52.22,153.52,49a2.55,2.55,0,0,1-1.09-2.65h0a1.24,1.24,0,0,1,1.91-.91l5.59,3.23A2.57,2.57,0,0,1,161,51.3h0A1.25,1.25,0,0,1,159.1,52.22Z"/><path class="cls-5" d="M176.32,70.61l-17.07-9.85a2.56,2.56,0,0,1-1.09-2.65h0a1.24,1.24,0,0,1,1.91-.91l17.07,9.85a2.56,2.56,0,0,1,1.09,2.64h0A1.24,1.24,0,0,1,176.32,70.61Z"/><path class="cls-5" d="M161.39,78.9l-5.58-3.22A2.56,2.56,0,0,1,154.72,73h0a1.24,1.24,0,0,1,1.91-.91l5.58,3.22a2.57,2.57,0,0,1,1.1,2.65h0A1.25,1.25,0,0,1,161.39,78.9Z"/><path class="cls-5" d="M191.75,130.24l-14.92-8.61a2.54,2.54,0,0,1-1.09-2.64h0a1.24,1.24,0,0,1,1.91-.92l14.92,8.61a2.56,2.56,0,0,1,1.09,2.65h0A1.24,1.24,0,0,1,191.75,130.24Z"/><path class="cls-5" d="M156,92.67l-3.59-2.07A2.57,2.57,0,0,1,151.27,88h0a1.25,1.25,0,0,1,1.92-.91l3.58,2.07a2.54,2.54,0,0,1,1.09,2.64h0A1.24,1.24,0,0,1,156,92.67Z"/><path class="cls-5" d="M153.37,108.09l-4.45-2.57a2.56,2.56,0,0,1-1.09-2.65h0a1.24,1.24,0,0,1,1.91-.91l4.45,2.57a2.54,2.54,0,0,1,1.09,2.64h0A1.24,1.24,0,0,1,153.37,108.09Z"/><path class="cls-5" d="M170.69,118.09,159,111.31a2.57,2.57,0,0,1-1.09-2.65h0a1.25,1.25,0,0,1,1.92-.91l11.73,6.78a2.54,2.54,0,0,1,1.09,2.64h0A1.24,1.24,0,0,1,170.69,118.09Z"/><path class="cls-5" d="M155.64,117.85,147.2,113a2.56,2.56,0,0,1-1.09-2.65h0a1.24,1.24,0,0,1,1.91-.91l8.44,4.87a2.55,2.55,0,0,1,1.09,2.65h0A1.24,1.24,0,0,1,155.64,117.85Z"/><path class="cls-5" d="M204.55,137.67l-5.42-3.13a2.55,2.55,0,0,1-1.09-2.65h0A1.24,1.24,0,0,1,200,131l5.42,3.13a2.55,2.55,0,0,1,1.09,2.65h0A1.24,1.24,0,0,1,204.55,137.67Z"/><path class="cls-5" d="M182.17,90.89l-14.92-8.61a2.54,2.54,0,0,1-1.09-2.64h0a1.24,1.24,0,0,1,1.91-.92L183,87.33A2.56,2.56,0,0,1,184.08,90h0A1.24,1.24,0,0,1,182.17,90.89Z"/><path class="cls-5" d="M183.53,83.23l-26-15a2.56,2.56,0,0,1-1.09-2.65h0a1.24,1.24,0,0,1,1.91-.91l26,15a2.54,2.54,0,0,1,1.09,2.64h0A1.24,1.24,0,0,1,183.53,83.23Z"/><path class="cls-5" d="M169,91.75l-14.91-8.61A2.56,2.56,0,0,1,153,80.49h0a1.24,1.24,0,0,1,1.91-.91l14.91,8.61a2.55,2.55,0,0,1,1.09,2.65h0A1.24,1.24,0,0,1,169,91.75Z"/><path class="cls-5" d="M193.48,97.43l-5.42-3.13A2.56,2.56,0,0,1,187,91.65h0a1.24,1.24,0,0,1,1.91-.91l5.42,3.13a2.54,2.54,0,0,1,1.09,2.64h0A1.24,1.24,0,0,1,193.48,97.43Z"/><path class="cls-5" d="M247,94.5,214.88,76a2.56,2.56,0,0,1-1.09-2.65h0a1.24,1.24,0,0,1,1.91-.91l32.1,18.53a2.54,2.54,0,0,1,1.09,2.64h0A1.25,1.25,0,0,1,247,94.5Z"/><path class="cls-5" d="M168.57,108.41,150.64,98.06a2.56,2.56,0,0,1-1.09-2.65h0a1.24,1.24,0,0,1,1.91-.91l17.93,10.35a2.55,2.55,0,0,1,1.09,2.65h0A1.24,1.24,0,0,1,168.57,108.41Z"/><path class="cls-5" d="M168.42,49.14l-13.18-7.61a2.55,2.55,0,0,1-1.09-2.65h0a1.24,1.24,0,0,1,1.91-.91l13.18,7.61a2.58,2.58,0,0,1,1.1,2.65h0A1.25,1.25,0,0,1,168.42,49.14Z"/><path class="cls-5" d="M153.29,125,138,116.13a2.54,2.54,0,0,1-1.09-2.64h0a1.24,1.24,0,0,1,1.91-.92l15.27,8.82A2.54,2.54,0,0,1,155.2,124h0A1.24,1.24,0,0,1,153.29,125Z"/><path class="cls-5" d="M255.78,182.13,246.84,177a2.56,2.56,0,0,1-1.09-2.65h0a1.24,1.24,0,0,1,1.91-.91l8.94,5.16a2.55,2.55,0,0,1,1.09,2.65h0A1.24,1.24,0,0,1,255.78,182.13Z"/><path class="cls-5" d="M262.2,152l-17.06-9.85a2.56,2.56,0,0,1-1.09-2.65h0a1.24,1.24,0,0,1,1.91-.91L263,148.46a2.55,2.55,0,0,1,1.09,2.65h0A1.24,1.24,0,0,1,262.2,152Z"/><path class="cls-5" d="M247.28,160.31l-5.59-3.22a2.57,2.57,0,0,1-1.09-2.65h0a1.25,1.25,0,0,1,1.92-.91l5.58,3.22a2.56,2.56,0,0,1,1.09,2.65h0A1.24,1.24,0,0,1,247.28,160.31Z"/><path class="cls-5" d="M241.83,174.08,238.25,172a2.55,2.55,0,0,1-1.09-2.65h0a1.24,1.24,0,0,1,1.91-.91l3.59,2.07a2.57,2.57,0,0,1,1.09,2.65h0A1.25,1.25,0,0,1,241.83,174.08Z"/><path class="cls-5" d="M268.05,172.31l-14.91-8.61a2.56,2.56,0,0,1-1.09-2.65h0a1.24,1.24,0,0,1,1.91-.92l14.91,8.62a2.54,2.54,0,0,1,1.09,2.64h0A1.24,1.24,0,0,1,268.05,172.31Z"/><path class="cls-5" d="M269.41,164.64l-26-15a2.58,2.58,0,0,1-1.1-2.65h0a1.25,1.25,0,0,1,1.92-.91l26,15a2.57,2.57,0,0,1,1.1,2.65h0A1.25,1.25,0,0,1,269.41,164.64Z"/><path class="cls-5" d="M254.89,173.16,240,164.55a2.55,2.55,0,0,1-1.09-2.65h0a1.24,1.24,0,0,1,1.91-.91l14.92,8.61a2.55,2.55,0,0,1,1.09,2.65h0A1.24,1.24,0,0,1,254.89,173.16Z"/><path class="cls-5" d="M254.46,189.82l-17.93-10.35a2.55,2.55,0,0,1-1.09-2.65h0a1.24,1.24,0,0,1,1.91-.91l17.93,10.35a2.56,2.56,0,0,1,1.09,2.65h0A1.24,1.24,0,0,1,254.46,189.82Z"/></g></g></svg>