<svg xmlns="http://www.w3.org/2000/svg" xmlns:xlink="http://www.w3.org/1999/xlink" viewBox="0 0 475.33 390.73"><defs><style>.cls-1{fill:#78c2ff;}.cls-2{fill:#6aafe8;}.cls-3{fill:url(#linear-gradient);}.cls-4{fill:#fff;}.cls-5{fill:url(#linear-gradient-2);}.cls-6{fill:#518afa;}.cls-7{fill:url(#linear-gradient-3);}.cls-8{fill:url(#linear-gradient-4);}.cls-9{fill:#696969;}.cls-10{fill:url(#linear-gradient-5);}.cls-11{fill:#e0e0e0;}.cls-12{fill:#1487e3;}.cls-13{fill:#ff8761;}.cls-14{fill:#323657;}.cls-15{fill:#a1d4ff;}.cls-16{fill:#eea886;}.cls-17{opacity:0.68;fill:url(#linear-gradient-6);}.cls-18{fill:#ffc055;}.cls-19{fill:#ffc455;}.cls-20{fill:#202338;}.cls-21{fill:#1c4054;}.cls-22{fill:#eea987;}.cls-23{fill:#3d66ba;}.cls-24{fill:#252e3b;}.cls-25{fill:#a77860;}.cls-26{fill:#999;}.cls-27{fill:#e8e8e8;}.cls-28{fill:#3a3f47;}.cls-29{fill:#0c5087;}.cls-30{fill:#444c94;}.cls-31{fill:#303669;}.cls-32{fill:#3d6091;}.cls-33{fill:#de9673;}.cls-34{fill:#316ebf;}.cls-35{fill:#eddad3;}.cls-36{fill:#5d89c4;}.cls-37{fill:#4c5285;}.cls-38{fill:#e8734d;}.cls-39{fill:#cfbeb8;}</style><linearGradient id="linear-gradient" x1="150.25" y1="363.66" x2="357.31" y2="363.66" gradientUnits="userSpaceOnUse"><stop offset="0" stop-color="#ff9f55"/><stop offset="1" stop-color="#ffd255"/></linearGradient><linearGradient id="linear-gradient-2" x1="54.28" y1="389.3" x2="261.34" y2="389.3" gradientUnits="userSpaceOnUse"><stop offset="0" stop-color="#e37e30"/><stop offset="1" stop-color="#e8a12e"/></linearGradient><linearGradient id="linear-gradient-3" x1="123.94" y1="191.8" x2="397.31" y2="191.8" gradientTransform="translate(508.8 383.6) rotate(-180)" xlink:href="#linear-gradient"/><linearGradient id="linear-gradient-4" x1="140.06" y1="180.28" x2="368.3" y2="180.28" gradientTransform="translate(508.36 360.55) rotate(-180)" gradientUnits="userSpaceOnUse"><stop offset="0" stop-color="#404b61"/><stop offset="0.49" stop-color="#3c4860"/><stop offset="1" stop-color="#2f3e5c"/></linearGradient><linearGradient id="linear-gradient-5" x1="190.3" y1="323.45" x2="318.5" y2="323.45" xlink:href="#linear-gradient"/><linearGradient id="linear-gradient-6" x1="328.42" y1="218.16" x2="475.33" y2="218.16" gradientUnits="userSpaceOnUse"><stop offset="0" stop-color="#343d4f"/><stop offset="0.46" stop-color="#30394c"/><stop offset="0.95" stop-color="#232d41"/><stop offset="1" stop-color="#212b40"/></linearGradient></defs><title>Asset 1</title><g id="Layer_2" data-name="Layer 2"><g id="Слой_1" data-name="Слой 1"><polygon class="cls-1" points="186.02 5.96 223.03 5.96 223.03 32.78 223.03 38.44 217.38 32.78 186.02 32.78 186.02 5.96"/><path class="cls-2" d="M115.74,121.78H57.37l.1-.52A10.29,10.29,0,0,1,67.56,113a10,10,0,0,1,2.11.22A17.51,17.51,0,0,1,99.31,111a12.76,12.76,0,0,1,16.35,10.26Zm-57.29-.87h56.26A12,12,0,0,0,103,111.34a11.87,11.87,0,0,0-3.75.6L99,112l-.19-.26a16.64,16.64,0,0,0-28.49,2.1l-.16.31-.34-.08a9.2,9.2,0,0,0-2.23-.27A9.41,9.41,0,0,0,58.45,120.91Z"/><polygon class="cls-3" points="344.35 339.45 253.78 339.45 163.21 339.45 150.25 387.88 253.78 387.88 357.31 387.88 344.35 339.45"/><path class="cls-4" d="M164.63,352.31h11.86a.71.71,0,0,1,.77.8l-1.15,5.16a.76.76,0,0,1-.77.55H163.28a.71.71,0,0,1-.77-.82l1.35-5.16A.77.77,0,0,1,164.63,352.31Z"/><polygon class="cls-4" points="181.92 352.31 190.88 352.31 189.69 358.82 180.56 358.82 181.92 352.31"/><polygon class="cls-4" points="195.36 352.31 204.32 352.31 203.38 358.82 194.25 358.83 195.36 352.31"/><polygon class="cls-4" points="208.8 352.31 217.76 352.31 217.08 358.82 207.95 358.82 208.8 352.31"/><polygon class="cls-4" points="222.24 352.31 231.2 352.31 230.78 358.82 221.65 358.82 222.24 352.31"/><polygon class="cls-4" points="235.68 352.31 244.64 352.31 244.47 358.82 235.34 358.83 235.68 352.31"/><polygon class="cls-4" points="343.23 352.31 329.79 352.31 331.24 358.82 344.94 358.82 343.23 352.31"/><polygon class="cls-4" points="325.31 352.31 316.35 352.31 317.55 358.82 326.68 358.82 325.31 352.31"/><polygon class="cls-4" points="311.87 352.31 302.91 352.31 303.85 358.82 312.98 358.83 311.87 352.31"/><polygon class="cls-4" points="298.43 352.31 289.47 352.31 290.15 358.82 299.29 358.82 298.43 352.31"/><polygon class="cls-4" points="284.99 352.31 276.03 352.31 276.46 358.82 285.59 358.82 284.99 352.31"/><polygon class="cls-4" points="271.55 352.31 262.59 352.31 262.76 358.82 271.89 358.83 271.55 352.31"/><polygon class="cls-4" points="249.12 352.31 258.08 352.31 258.23 358.82 249.12 358.82 249.12 352.31"/><polygon class="cls-4" points="160.69 363.67 179.41 363.67 178.35 370.37 159.27 370.37 160.69 363.67"/><polygon class="cls-4" points="346.16 363.67 323.01 363.67 324.33 370.37 347.92 370.37 346.16 363.67"/><polygon class="cls-4" points="318.38 363.67 309.13 363.67 310.18 370.37 319.62 370.37 318.38 363.67"/><polygon class="cls-4" points="304.5 363.67 295.24 363.67 296.03 370.37 305.46 370.37 304.5 363.67"/><polygon class="cls-4" points="290.61 363.67 281.35 363.67 281.88 370.37 291.31 370.37 290.61 363.67"/><polygon class="cls-4" points="276.73 363.67 267.47 363.67 267.73 370.37 277.17 370.37 276.73 363.67"/><polygon class="cls-4" points="157.89 375.63 177.04 375.63 175.64 382.29 156.15 382.29 157.89 375.63"/><polygon class="cls-4" points="181.82 375.63 191.39 375.63 190.26 382.29 180.51 382.29 181.82 375.63"/><polygon class="cls-4" points="196.18 375.63 205.75 375.63 267.95 375.63 268.22 382.29 195.13 382.29 196.18 375.63"/><polygon class="cls-4" points="272.74 375.63 282.31 375.63 282.84 382.29 273.09 382.29 272.74 375.63"/><polygon class="cls-4" points="287.1 375.63 296.67 375.63 297.46 382.29 287.71 382.29 287.1 375.63"/><polygon class="cls-4" points="301.46 375.63 311.03 375.63 312.07 382.29 302.33 382.29 301.46 375.63"/><polygon class="cls-4" points="315.81 375.63 325.38 375.63 326.69 382.29 316.95 382.29 315.81 375.63"/><polygon class="cls-4" points="330.17 375.63 349.31 375.63 351.06 382.29 331.57 382.29 330.17 375.63"/><polygon class="cls-4" points="262.86 363.67 253.68 363.67 253.68 370.37 263.04 370.37 262.86 363.67"/><polygon class="cls-4" points="248.97 363.67 239.72 363.67 239.45 370.37 248.88 370.37 248.97 363.67"/><polygon class="cls-4" points="235.09 363.67 225.83 363.67 225.3 370.37 234.74 370.37 235.09 363.67"/><polygon class="cls-4" points="221.2 363.67 211.94 363.67 211.15 370.37 220.59 370.37 221.2 363.67"/><polygon class="cls-4" points="207.31 363.67 198.06 363.67 197 370.37 206.44 370.37 207.31 363.67"/><polygon class="cls-4" points="193.43 363.67 184.17 363.67 182.85 370.37 192.29 370.37 193.43 363.67"/><polygon class="cls-4" points="165.07 348.23 166.59 342.42 170.94 342.42 169.52 348.23 165.07 348.23"/><polygon class="cls-4" points="175.29 342.42 183.99 342.42 182.78 348.23 173.92 348.23 175.29 342.42"/><polygon class="cls-4" points="188.34 342.42 197.04 342.42 196.06 348.23 187.2 348.23 188.34 342.42"/><polygon class="cls-4" points="201.4 342.42 210.1 342.42 209.34 348.23 200.48 348.23 201.4 342.42"/><polygon class="cls-4" points="214.45 342.42 223.15 342.42 222.62 348.23 213.76 348.23 214.45 342.42"/><polygon class="cls-4" points="227.5 342.42 236.2 342.42 235.9 348.23 227.04 348.23 227.5 342.42"/><polygon class="cls-4" points="240.55 342.42 249.25 342.42 249.18 348.23 240.32 348.23 240.55 342.42"/><polygon class="cls-4" points="253.6 342.42 262.3 342.42 262.45 348.23 253.6 348.23 253.6 342.42"/><polygon class="cls-4" points="266.65 342.42 275.35 342.42 275.74 348.23 266.88 348.23 266.65 342.42"/><polygon class="cls-4" points="279.7 342.42 288.41 342.42 289.01 348.23 280.16 348.23 279.7 342.42"/><polygon class="cls-4" points="292.76 342.42 301.46 342.42 302.29 348.23 293.44 348.23 292.76 342.42"/><polygon class="cls-4" points="305.81 342.42 314.51 342.42 315.57 348.23 306.72 348.23 305.81 342.42"/><polygon class="cls-4" points="318.86 342.42 327.56 342.42 328.85 348.23 320 348.23 318.86 342.42"/><polygon class="cls-4" points="331.91 342.42 340.61 342.42 342.13 348.23 333.28 348.23 331.91 342.42"/><rect class="cls-5" x="150.25" y="387.88" width="207.06" height="2.86"/><rect class="cls-6" x="240.15" y="236.9" width="28.5" height="86.55" transform="translate(508.8 560.35) rotate(180)"/><rect class="cls-7" x="131.37" y="105.01" width="246.06" height="173.59" rx="8.66" transform="translate(508.8 383.6) rotate(180)"/><rect class="cls-8" x="140.06" y="113.51" width="228.23" height="133.53" transform="translate(508.36 360.55) rotate(180)"/><path class="cls-9" d="M246.46,263.84a7.94,7.94,0,1,0,7.94-7.94A7.95,7.95,0,0,0,246.46,263.84Z"/><rect class="cls-10" x="190.3" y="320.19" width="128.2" height="6.53"/><path class="cls-2" d="M329.79,47l-.19-.1c-20.72-10.58-17.93-31.06-17.9-31.26l.05-.37h.38c13.17,0,17.31-4.25,17.34-4.29l.33-.34.31.34s4.18,4.29,17.35,4.29h.38l.05.37c0,.2,2.81,20.68-17.9,31.26ZM312.52,16.16c-.26,2.77-1.14,20.35,17.27,29.88,18.43-9.54,17.55-27.11,17.28-29.88-11.43-.07-16.09-3.26-17.28-4.27C328.6,12.9,324,16.09,312.52,16.16Z"/><rect class="cls-11" x="153.18" y="123.74" width="25.56" height="2.62"/><rect class="cls-11" x="185.9" y="143.44" width="18.46" height="2.62"/><rect class="cls-12" x="207.23" y="143.44" width="12.25" height="2.62"/><rect class="cls-12" x="232.25" y="222.56" width="12.25" height="2.62"/><rect class="cls-12" x="153.47" y="193" width="12.25" height="2.62"/><rect class="cls-11" x="221.9" y="143.44" width="29.57" height="2.62"/><rect class="cls-11" x="153.47" y="183.08" width="19" height="2.62"/><rect class="cls-11" x="204.53" y="202.86" width="19" height="2.62"/><rect class="cls-11" x="275.5" y="222.56" width="19" height="2.62"/><rect class="cls-11" x="179.96" y="202.86" width="11.6" height="2.62"/><rect class="cls-12" x="153.47" y="202.86" width="22.98" height="2.62"/><rect class="cls-11" x="153.47" y="212.71" width="12.67" height="2.62"/><rect class="cls-1" x="183.72" y="123.74" width="18.15" height="2.62"/><rect class="cls-12" x="183.72" y="153.3" width="18.15" height="2.62"/><rect class="cls-11" x="174.64" y="163.15" width="7.75" height="2.62"/><rect class="cls-1" x="166.89" y="173.15" width="17.41" height="2.62"/><rect class="cls-12" x="186.94" y="173.15" width="24.04" height="2.62"/><rect class="cls-12" x="263.07" y="212.71" width="24.04" height="2.62"/><rect class="cls-12" x="153.47" y="163.22" width="18.15" height="2.62"/><rect class="cls-12" x="153.47" y="173.15" width="10.77" height="2.62"/><rect class="cls-13" x="186.05" y="163.22" width="10.16" height="2.62"/><rect class="cls-13" x="153.78" y="222.56" width="10.16" height="2.62"/><rect class="cls-1" x="153.4" y="143.44" width="18.15" height="2.62"/><rect class="cls-1" x="169.45" y="193" width="18.15" height="2.62"/><rect class="cls-1" x="169.67" y="212.71" width="18.15" height="2.62"/><rect class="cls-1" x="201.91" y="212.71" width="18.15" height="2.62"/><rect class="cls-1" x="153.4" y="153.3" width="25.87" height="2.62"/><rect class="cls-1" x="274.61" y="123.74" width="18.15" height="2.62"/><rect class="cls-1" x="209.97" y="222.56" width="18.15" height="2.62"/><rect class="cls-1" x="298.41" y="123.74" width="12.15" height="2.62"/><rect class="cls-1" x="339.5" y="133.59" width="12.15" height="2.62"/><rect class="cls-12" x="206.75" y="123.74" width="23.12" height="2.62"/><rect class="cls-12" x="298.41" y="222.56" width="23.12" height="2.62"/><rect class="cls-12" x="167.77" y="222.56" width="23.12" height="2.62"/><rect class="cls-12" x="296.83" y="133.59" width="23.12" height="2.62"/><rect class="cls-12" x="268.47" y="143.44" width="23.12" height="2.62"/><rect class="cls-12" x="248.38" y="222.56" width="23.12" height="2.62"/><rect class="cls-12" x="244.82" y="202.86" width="23.12" height="2.62"/><rect class="cls-12" x="238.37" y="153.3" width="23.12" height="2.62"/><rect class="cls-13" x="195.19" y="202.86" width="4.98" height="2.62"/><rect class="cls-1" x="294.5" y="143.44" width="16.43" height="2.62"/><rect class="cls-13" x="246.97" y="123.74" width="23.12" height="2.62"/><rect class="cls-13" x="220.59" y="153.3" width="13.55" height="2.62"/><rect class="cls-13" x="209.97" y="193.15" width="13.56" height="2.62"/><rect class="cls-11" x="234.14" y="123.74" width="8.46" height="2.62"/><rect class="cls-11" x="206.75" y="153.3" width="8.46" height="2.62"/><rect class="cls-11" x="325.52" y="133.59" width="8.46" height="2.62"/><rect class="cls-12" x="153.18" y="133.59" width="13.24" height="2.62"/><rect class="cls-12" x="188.51" y="183.15" width="10.45" height="2.62"/><rect class="cls-12" x="169.67" y="133.59" width="4.28" height="2.62"/><rect class="cls-11" x="257.43" y="133.59" width="35.33" height="2.62"/><rect class="cls-11" x="223.53" y="212.71" width="35.33" height="2.62"/><rect class="cls-13" x="177.09" y="133.59" width="4.36" height="2.62"/><rect class="cls-12" x="242.6" y="133.59" width="11.56" height="2.62"/><rect class="cls-13" x="254.16" y="143.44" width="11.56" height="2.62"/><rect class="cls-13" x="228.36" y="202.86" width="11.56" height="2.62"/><rect class="cls-13" x="194.72" y="222.56" width="11.56" height="2.62"/><rect class="cls-12" x="214.95" y="133.59" width="24.6" height="2.62"/><rect class="cls-12" x="272.18" y="202.86" width="24.6" height="2.62"/><rect class="cls-12" x="192.06" y="193.15" width="14.37" height="2.62"/><rect class="cls-12" x="191.13" y="212.71" width="7.18" height="2.62"/><rect class="cls-1" x="203" y="133.59" width="8.46" height="2.62"/><rect class="cls-13" x="290.27" y="212.71" width="8.46" height="2.62"/><rect class="cls-13" x="174.51" y="143.44" width="8.46" height="2.62"/><rect class="cls-13" x="176.2" y="183.15" width="8.46" height="2.62"/><rect class="cls-12" x="185.02" y="133.59" width="14.74" height="2.62"/><polygon class="cls-1" points="154.71 164.97 90.49 164.97 90.49 117.78 91.36 117.78 91.36 164.1 154.71 164.1 154.71 164.97"/><polygon class="cls-1" points="283.27 144.75 282.4 144.75 282.4 82.3 329.36 82.3 329.36 41.38 330.23 41.38 330.23 83.17 283.27 83.17 283.27 144.75"/><path class="cls-14" d="M149.94,232.78h0S150,232.8,149.94,232.78Z"/><polygon class="cls-2" points="358.67 57.82 351.18 57.82 351.18 56.95 357.79 56.95 357.79 50.34 358.67 50.34 358.67 57.82"/><polygon class="cls-2" points="308.33 57.82 300.84 57.82 300.84 50.34 301.71 50.34 301.71 56.95 308.33 56.95 308.33 57.82"/><polygon class="cls-2" points="301.71 7.49 300.84 7.49 300.84 0 308.32 0 308.32 0.87 301.71 0.87 301.71 7.49"/><polygon class="cls-2" points="358.67 7.48 357.79 7.48 357.79 0.88 351.18 0.88 351.18 0.01 358.67 0.01 358.67 7.48"/><rect class="cls-2" x="357.79" y="18.66" width="0.87" height="20.5"/><rect class="cls-2" x="300.84" y="18.66" width="0.87" height="20.5"/><path class="cls-1" d="M90.93,118.22a3.21,3.21,0,1,1,3.2-3.21A3.21,3.21,0,0,1,90.93,118.22Zm0-5.54A2.34,2.34,0,1,0,93.26,115,2.33,2.33,0,0,0,90.93,112.68Z"/><path class="cls-1" d="M77,281.44a3.21,3.21,0,1,1,3.2-3.21A3.21,3.21,0,0,1,77,281.44Zm0-5.54a2.34,2.34,0,1,0,2.33,2.33A2.33,2.33,0,0,0,77,275.9Z"/><path class="cls-1" d="M329.79,41.81a3.2,3.2,0,1,1,3.21-3.2A3.2,3.2,0,0,1,329.79,41.81Zm0-5.53a2.33,2.33,0,1,0,2.34,2.33A2.34,2.34,0,0,0,329.79,36.28Z"/><path class="cls-15" d="M111.89,26.33h-22v-22h22Zm-21.12-.88H111V5.2H90.77Z"/><rect class="cls-15" x="100.45" y="10.33" width="0.87" height="10.25"/><rect class="cls-15" x="95.77" y="15.02" width="10.25" height="0.87"/><path class="cls-15" d="M447,52.86H415.61V30.41H447ZM416.48,52h29.69V31.29H416.48Z"/><polygon class="cls-15" points="431.33 44.01 415.77 31.19 416.32 30.51 431.33 42.88 446.33 30.51 446.89 31.19 431.33 44.01"/><rect class="cls-15" x="440.53" y="38.27" width="0.87" height="16.4" transform="translate(89.03 316.19) rotate(-43.48)"/><rect class="cls-15" x="413.49" y="46.04" width="16.4" height="0.87" transform="translate(97.91 320.61) rotate(-46.54)"/><path class="cls-15" d="M166.77,75.4l-.33-.85a5.11,5.11,0,0,1-.86-.2l-.67.62L163,73.6l.37-.84a4.12,4.12,0,0,1-.47-.75L162,72l-.4-2.34.86-.33a4.27,4.27,0,0,1,.19-.86l-.62-.67,1.37-1.93.84.37a4.12,4.12,0,0,1,.75-.47l0-.91,2.34-.4.33.86a4.27,4.27,0,0,1,.86.19l.67-.62,1.93,1.38-.37.83a4.12,4.12,0,0,1,.47.75l.91,0,.4,2.34-.86.33a4.27,4.27,0,0,1-.19.86l.62.67L170.73,74l-.84-.37a4.12,4.12,0,0,1-.75.47l0,.91Zm-1.34-1.81.19.08a4.46,4.46,0,0,0,1.08.25h.21l.28.74,1.29-.22,0-.79.19-.08a3.82,3.82,0,0,0,.94-.59l.16-.13.71.32.76-1.06-.54-.58.08-.19a4.46,4.46,0,0,0,.25-1.08v-.21l.74-.28-.22-1.28-.79,0-.08-.19a4,4,0,0,0-.59-.94l-.13-.16.32-.71-1.07-.76-.57.54-.19-.08a4,4,0,0,0-1.08-.24l-.21,0-.28-.73-1.29.21,0,.79-.19.08a3.82,3.82,0,0,0-.94.59l-.16.13-.71-.32-.76,1.07.54.57-.08.19a4,4,0,0,0-.24,1.08l0,.21-.74.28.22,1.29.79,0,.08.19a3.82,3.82,0,0,0,.59.94l.13.16-.32.71,1.06.76Zm1.62-1.09a2.58,2.58,0,0,1-1.5-.47h0a2.61,2.61,0,1,1,1.5.47Zm0-4.51a1.91,1.91,0,0,0-1.57.81,1.93,1.93,0,0,0,.45,2.69h0a1.93,1.93,0,1,0,1.12-3.5Z"/><path class="cls-15" d="M148.6,78.14l-.73-1.91a10.58,10.58,0,0,1-2.29-.53l-1.49,1.4-4-2.88.83-1.86a10.59,10.59,0,0,1-1.24-2l-2-.06-.82-4.89,1.91-.74a10.56,10.56,0,0,1,.52-2.29l-1.39-1.49,2.87-4,1.87.83a10.2,10.2,0,0,1,2-1.24l.06-2,4.9-.82.73,1.91a10.56,10.56,0,0,1,2.29.52L154,54.6l4,2.88-.83,1.87a10.25,10.25,0,0,1,1.25,2l2,.07.82,4.89-1.9.73a10.58,10.58,0,0,1-.53,2.29l1.4,1.49-2.88,4L155.56,74a10.63,10.63,0,0,1-2,1.25l-.06,2Zm-3.22-3.45.26.1a9.42,9.42,0,0,0,2.58.6l.28,0,.66,1.75,3.49-.59.06-1.87.25-.11a9.9,9.9,0,0,0,2.25-1.41l.21-.18,1.7.77,2-2.88-1.27-1.37.09-.25a9.2,9.2,0,0,0,.59-2.59l0-.27,1.75-.67-.59-3.49-1.87,0-.11-.25a9.68,9.68,0,0,0-1.41-2.25l-.18-.21.77-1.71-2.88-2.05L152.72,57l-.25-.1a9.56,9.56,0,0,0-2.59-.59l-.27,0-.67-1.74-3.49.59,0,1.87-.25.11a8.88,8.88,0,0,0-2.25,1.41l-.21.17L141,57.94l-2,2.88,1.28,1.36-.1.26a9.78,9.78,0,0,0-.59,2.58l0,.28-1.75.66.58,3.49,1.88.06.11.25a9.52,9.52,0,0,0,1.4,2.25l.18.21-.76,1.7L144,76ZM149,71.5a5.57,5.57,0,0,1-3.26-1,5.63,5.63,0,1,1,3.26,1Zm0-10.42a4.4,4.4,0,0,0-.8.07,4.73,4.73,0,1,0,.8-.07Z"/><path class="cls-1" d="M16.28,186.72A16.29,16.29,0,0,1,0,170.45H.87A15.41,15.41,0,1,0,16.28,155v-.87a16.28,16.28,0,0,1,0,32.55Zm0-2.26a14,14,0,1,1,14-14h-.87a13.14,13.14,0,1,0-13.14,13.14Z"/><polygon class="cls-1" points="14.28 175.84 8.41 169.97 9.03 169.35 14.28 174.6 23.52 165.36 24.14 165.98 14.28 175.84"/><path class="cls-1" d="M49.77,334.62A3.73,3.73,0,0,1,46,330.91v-.55a5.38,5.38,0,0,1-3.72-5.09l-.06-11.17h2.22c-.86-13.89-11.28-33.33-11.39-33.53a29.7,29.7,0,1,1,49.61,0c-.42.77-10.46,19.63-11.36,33.37h2.15l.05,11.17a5.39,5.39,0,0,1-3.67,5.12v.56a3.73,3.73,0,0,1-3.71,3.74l-16.39.08ZM43.14,315l0,10.29a4.49,4.49,0,0,0,3.39,4.34l.32.09v1.22a2.86,2.86,0,0,0,2.87,2.84l16.38-.08A2.86,2.86,0,0,0,69,330.8v-1.22l.32-.09a4.51,4.51,0,0,0,3.35-4.37l0-10.3H70.41l0-.46c.71-14,11.07-33.4,11.51-34.22a28.83,28.83,0,1,0-48.11,0c.1.14,10.87,20.26,11.54,34.39l0,.46Zm15.08-21h-.34a19.35,19.35,0,0,1-2.55-.12l.08-.87a26,26,0,0,0,5,0l.08.87A22.33,22.33,0,0,1,58.22,294Z"/><rect class="cls-1" x="49.59" y="314.09" width="16.44" height="0.87"/><rect class="cls-1" x="56.94" y="210.36" width="1.74" height="14.91"/><rect class="cls-1" x="74.35" y="222.21" width="14.91" height="1.75" transform="translate(-133.78 123.18) rotate(-45)"/><rect class="cls-1" x="32.96" y="215.63" width="1.75" height="14.91" transform="translate(-147.83 89.26) rotate(-45)"/><rect class="cls-2" x="47.15" y="281.91" width="0.87" height="17.58" transform="translate(-65.15 18.56) rotate(-13.21)"/><rect class="cls-2" x="59.26" y="290.26" width="17.58" height="0.87" transform="translate(-230.51 290.21) rotate(-76.73)"/><path class="cls-1" d="M91.14,264.45h-.87A32.48,32.48,0,0,0,57.82,232v-.88A33.36,33.36,0,0,1,91.14,264.45Z"/><path class="cls-1" d="M83.68,264.45h-.87a25,25,0,1,0-50,0H32a25.87,25.87,0,1,1,51.73,0Z"/><polygon class="cls-1" points="113.91 278.67 79.8 278.67 79.8 277.8 113.04 277.8 113.04 240.72 125.25 240.72 125.25 241.59 113.91 241.59 113.91 278.67"/><path class="cls-16" d="M390.25,236.59s-.57-2.15,0-3.08a9.35,9.35,0,0,0,1.05-2.91c.12-.63,1.21-2.55.4-2.59s-1.94,3.09-2.31,3.72-1.37-2.12-2-2.43-5.46,2.21-4.53,4,3.21,2.92,3.3,3.27a11.62,11.62,0,0,0,.62,1.34Z"/><path class="cls-16" d="M387.76,229.65s-3.23-5.22-3.77-5.35-.85.09-.57.6,3,5.15,3,5.15-5-5.4-5.39-5.61c-.24-.12-.85.29-.73.58s4.71,6,4.71,6-4.67-5-5.07-5.11-.85.45-.53.85l4.34,5.35s-3.66-3.42-4.06-3.27c-.25.09-.8.42.18,1.27s3,3.13,3,3.13Z"/><rect class="cls-17" x="328.42" y="202.25" width="146.91" height="31.83" rx="5.16"/><rect class="cls-11" x="336.28" y="212.01" width="23.79" height="2.43"/><rect class="cls-11" x="364.7" y="212.01" width="16.89" height="2.43"/><rect class="cls-11" x="364.7" y="221.18" width="15.77" height="2.44"/><rect class="cls-1" x="449.29" y="212.01" width="16.89" height="2.43"/><rect class="cls-12" x="386.13" y="212.01" width="21.52" height="2.43"/><rect class="cls-18" x="423.56" y="212.01" width="21.52" height="2.43"/><rect class="cls-11" x="411.62" y="212.01" width="7.88" height="2.43"/><rect class="cls-1" x="336.28" y="221.18" width="12.32" height="2.44"/><rect class="cls-12" x="351.62" y="221.18" width="3.98" height="2.44"/><rect class="cls-11" x="433.3" y="221.18" width="32.88" height="2.44"/><rect class="cls-19" x="358.52" y="221.18" width="4.06" height="2.44"/><rect class="cls-12" x="419.5" y="221.18" width="10.76" height="2.44"/><rect class="cls-1" x="393.76" y="221.18" width="22.89" height="2.44"/><rect class="cls-11" x="382.64" y="221.18" width="7.88" height="2.44"/><path class="cls-20" d="M386.45,344.75s-3.11,3.12-5.78,3.45-5.77,1.34-6.13,3.36,7.91,4.15,11.17,2.57c4.86-2.35,6.27-1.41,7-2.85s.61-6.41.72-6.89S386.45,344.75,386.45,344.75Z"/><path class="cls-20" d="M441.31,335.93s-.9,4.26-2.88,5.9-4,4.07-3.22,6,7.8,1.69,10.33-3.4c1.59-3.22,3.44-3.78,3.3-5.4s-2.61-5.09-2.76-5.56S441.31,335.93,441.31,335.93Z"/><path class="cls-21" d="M407.43,274.84s-10.7,22.17-13.12,27.79a80.65,80.65,0,0,0-4.85,18.23c-.38,4.6-4.79,23.31-5.06,24.66s9.33.53,9.33.53,8.36-31.88,10.58-36.4c1.47-3,12.58-23.1,13.56-21.85s7,16.25,7.68,19.85S440,338,440,338s6.38-.46,7.64-2.9c0,0-10.2-27.12-11.33-32.06-.58-2.51-2.7-18.34-5.36-30.48C429.54,266.33,407.43,274.84,407.43,274.84Z"/><path class="cls-6" d="M434.55,241.08s-3.68,11.08-3.6,13.71S428.91,241.91,434.55,241.08Z"/><path class="cls-6" d="M408.42,245.18a27.31,27.31,0,0,1-1.32,3.36h0a22.52,22.52,0,0,1-1.12,2.08l-.22.36a14.79,14.79,0,0,1-1,1.34,5.94,5.94,0,0,1-4,2.46c-3.14.23-14.44-17-14.44-17l5.4-2.45s7.15,10.32,8.26,9.75,2.26-4.76,2.26-4.76c1.31-.72,3.31,1.29,4.67,2.94l.25.32C407.94,244.45,408.42,245.18,408.42,245.18Z"/><path class="cls-6" d="M431.57,274.35c-6.12,5.47-25.66,3.66-25.66,3.66.28-.68,2.26-21.05,1.57-25.65s-.3-8.52-.92-8.69-4.81-1.65-4.81-1.65,2.23-7.1,3.17-8.65,7.63-3.79,7.63-3.79a26.61,26.61,0,0,1,10.71-1.21c9.21,1.09,10.31,3.8,10.31,3.8l-2.13,13.68V246c0,.3,0,1.07-.08,2.13-.15,4.4-.48,13.82-.53,16.06A96.2,96.2,0,0,0,431.57,274.35Z"/><path class="cls-22" d="M424.78,228.62a13.34,13.34,0,0,1-1.19,1.82c-2.87,3.71-6.21,3.58-6.21,3.58a4.42,4.42,0,0,1-3.69-2.68,6.77,6.77,0,0,1-.59-2l1.21-.43a6.09,6.09,0,0,0,.18-1.23c0-.27,0-.54,0-.82s0-.49,0-.73v-.29c0-1-.12-1.89-.12-1.89s8.72-4.71,8-1.39a8.07,8.07,0,0,0-.06,3.59,2.79,2.79,0,0,0,1.13,1.84C424.29,228.43,424.78,228.62,424.78,228.62Z"/><path class="cls-16" d="M399.72,235.34a1.78,1.78,0,0,1-.54-.94c-.09-.89.8-2-.22-2.84s-4.68,1.65-5.06,2.42.63,2.25,3,3.68S399.72,235.34,399.72,235.34Z"/><path class="cls-16" d="M399.26,231.88a35.33,35.33,0,0,0-2.05-3.5c-1-1.57-2.52-3.23-2.94-2.94-.59.39.74,1.56,1.67,3.18s.42,1.35.42,1.35.12,0-1.14-1.41-3-3.21-3.42-2.86-.29.22.1.86c-.31-.32-.45-.28-.6-.16-.82.6.8,3.2,1.45,4.23-.5-.79-1-1.31-1.21-.64s2.17,4.33,2.92,5.69S399.26,231.88,399.26,231.88Z"/><path class="cls-6" d="M434.34,242.68c4-4.81-.94-10.78-.94-10.78-2.89-2.46-9.22,7.88-10,8.89s-6.85,6.42-8.54,8.25c-.86.93-4.49-3-6.15-4.63-1-.95-8.78-10.08-8.78-10.08l-4.9,3.55c.45-.33,15.86,19.85,18.72,20C413.73,257.88,424.8,254.3,434.34,242.68Z"/><path class="cls-23" d="M406,250.63l-.22.36a14.79,14.79,0,0,1-1,1.34c-.75-.89-3.56-7.23-3.6-7.33Z"/><path class="cls-23" d="M430,247.37a78.19,78.19,0,0,1-7.65,6.09c-2.69,1.64-7.18,3.88-7.68,4.07C414.67,257.53,426.56,255.21,430,247.37Z"/><path class="cls-16" d="M409.75,211.81s-1.89,3.51-.95,4.06c.77.45-.91,3.9-1.13,4.46s1.4,1,1.75,1.34,1.37,4.82,2.7,5,7.38-2,9-3.67,3-9.42,1.89-12.68S413.09,205.68,409.75,211.81Z"/><path class="cls-24" d="M409.37,212.57A5.39,5.39,0,0,1,411,206c3.51-2.82,10,2.12,10.72,2.31s4.87.47,2.78,7.74c-1.79,6.25-2.05,6.51-2.05,6.51s-1.34-3.62-2.09-4.17c-1.19-.86-3.79-.65-3.79-.65s1.24-3.29-.7-3.76S411.33,211.85,409.37,212.57Z"/><path class="cls-16" d="M418.58,215.83c.17-.46.72-2.4,2.39-1.26s-1,4.8-1.33,4.84S417.14,219.62,418.58,215.83Z"/><path class="cls-25" d="M421,223.12s-1.42,2.8-6.47,4.6c0-.27,0-.54,0-.82s0-.49,0-.73A21.87,21.87,0,0,0,421,223.12Z"/><path class="cls-26" d="M236.2,155a27.89,27.89,0,0,0,.9,4.53c.5,1.39,3.28,4.59,2.11,7.67-1.27,3.34-6.82.12-9.08-.9s-1.75-2.86-2-5.12-1.35-2.33-.94-3.92,2.88-4.63,2.88-4.63Z"/><path class="cls-16" d="M231.15,151s-1.42,2-1.38,2,6.08,3.74,6.5,2.54a11.87,11.87,0,0,0,.48-2.32Z"/><path class="cls-26" d="M210.66,157.22a23.08,23.08,0,0,0-3.5,4.11c-1.66,2.48-6,2.61-6.24,6s6,3.5,9.21,2.39,3.73-4.41,5.69-5.24,3-1.5,2.82-3.12a19.69,19.69,0,0,0-1.23-4.23,14.05,14.05,0,0,1-1.93.46A15.79,15.79,0,0,1,210.66,157.22Z"/><path class="cls-12" d="M232.85,65.36s-1.25,7.38-2.25,12.25h0a30.23,30.23,0,0,1-1,4,58.27,58.27,0,0,1-5.47,6c-5,5.15-11.6,11.63-11.6,11.63L210,94.43s5.87-6.88,9.85-11.47c1.84-2.13,3.28-3.76,3.54-4,.83-.74,1.8-8.07,3.15-14.11a24.37,24.37,0,0,1,4.08-9.38Z"/><path class="cls-16" d="M224.14,87.7c-5,5.15-11.6,11.63-11.6,11.63L210,94.43s5.87-6.88,9.85-11.47A8.28,8.28,0,0,1,224.14,87.7Z"/><path class="cls-16" d="M211,155l-.29,2.25a11.14,11.14,0,0,0,6.75-.09l.07-2Z"/><path class="cls-12" d="M256.51,98.33c.18.66-34,0-34,0s9.45-6.88,10.06-8.72-2.41-12.87-2.8-16.46c-.31-2.87-1.1-15.72.79-17.68s9.1-4.2,9.1-4.2l10.39.39a16,16,0,0,1,2.94.92c1.23.57,8.23,3.07,9.37,6.57s-7,14.76-7,14.76,0,.51,0,1.33h0c0,1.11-.08,2.79-.12,4.61-.06,2.36-.1,5-.1,6.86A67.35,67.35,0,0,0,256.51,98.33Z"/><path class="cls-27" d="M256.51,98.33s4.65,6.83,4.71,11.49-8.25,20.27-9.51,22.51c-3.78,6.71-14.15,21.19-14.15,21.19s-1.79,0-7.37-2.21c0,0,6.9-19.13,7.78-21.12,3.7-8.42,5.78-14.39,4.53-15.84s-4.65-2.89-5.63-3.74-18.14,3.24-19.94,3.71c-4.66,1.2-2.53,9.3-1.5,12.93,1.72,6.08,3.22,28,3.22,28s-3.31,1.42-8.87.22c0,0-10.9-39.61-11.25-43.55S198,101.5,224.88,96.56Z"/><path class="cls-16" d="M242.52,28.7s-9-2-7,9.31,4.22,12.24,9.66,9.9,5-9.62,5.23-13.19S245.4,28.82,242.52,28.7Z"/><path class="cls-16" d="M240.14,54.18s4,4.24,10.3.39c0,0-1.41-9.18-.67-13.65s-8.23,6.93-8.23,6.93.19.49.21,1.09a11.88,11.88,0,0,1-.09,1.82C241.47,52.25,241,53.82,240.14,54.18Z"/><path class="cls-28" d="M250,40.54s-.23-3.57-1.54-3.68-1.5,1.33-1.5,1.33l-1.32.25s.41-3.14-.89-3.69-8.45,1.73-9.5.81-.55-7.28,1.34-8.15,7.12-2.82,11-.22c0,0,3-.34,3.42,2.07S250.83,38.75,250,40.54Z"/><path class="cls-25" d="M241.66,50.76c6.51-2,7-5.92,7-6-2.15,3.69-6.92,4.17-6.92,4.17A11.88,11.88,0,0,1,241.66,50.76Z"/><path class="cls-16" d="M253.11,52.63s-4.77,9.49-12.47,8.88-1.32-10.15-1-10.24S247.57,49.3,253.11,52.63Z"/><path class="cls-12" d="M218.61,97.85s23.6,2.91,37.9.48l-27.32-3.41S229,95.61,218.61,97.85Z"/><path class="cls-16" d="M236.26,93.84l-1.76.89s.4,2.8,1.36,3.64l2-.5S237.43,94.8,236.26,93.84Z"/><path class="cls-12" d="M263.57,88.12c-.35.41-5,2.28-10.23,4.3h0c-7.16,2.75-15.24,5.36-15.24,5.36l-1.84-3.94s8.46-4.59,14.17-7.82c2.7-1.52,4.79-2.74,5.09-3,.92-.87,1.15-2.28.48-4.72s-2.23-13.7-2.41-15,.44-4.81,3.72-5a10,10,0,0,1,5,.75s.82.35,1.43,8.31S264.4,87.16,263.57,88.12Z"/><path class="cls-29" d="M255.34,75.24h0c0,1.11-.08,2.79-.12,4.61a23,23,0,0,1-1.32-14.22C253.55,67.76,255.31,75.14,255.34,75.24Z"/><path class="cls-29" d="M230.6,77.61h0a30.23,30.23,0,0,1-1,4c-1.1-5.3-.11-12.08-.11-12.08A68.87,68.87,0,0,0,230.6,77.61Z"/><path class="cls-16" d="M253.34,92.42h0c-7.16,2.75-15.5,5.45-15.5,5.45l-1.58-4s8.46-4.59,14.17-7.82C250.43,86,252.51,87,253.34,92.42Z"/><polygon class="cls-30" points="235.75 98.1 202.2 97.61 219.14 106.21 235.75 98.1"/><polygon class="cls-31" points="219.14 106.21 235.75 99.78 235.75 98.1 217.83 104.57 219.14 106.21"/><path class="cls-16" d="M234.88,94.79s-2.1-.32-3.54-.66c-1.12-.26-3.91.1-4.62.82s-3,5.73-3.4,6,.22,1,1,.65c0,0,.69,2.2,2.39,1.38s2.85-2.62,3.74-2.93,6.07-1.91,6.07-1.91S236.22,94.26,234.88,94.79Z"/><path class="cls-16" d="M227.23,94.62a14.47,14.47,0,0,0-1.7.94c-.35.29-1.77,1.36-2.12,1.61s.52,1,3.07-.14S227.23,94.62,227.23,94.62Z"/><polygon class="cls-31" points="219.14 106.21 209.16 78.96 176.99 79.49 186.5 104.6 219.14 106.21"/><path class="cls-6" d="M198.87,91c1,2,.68,4.1-.66,4.77S195,95.42,194,93.46s-.69-4.1.66-4.78S197.89,89.05,198.87,91Z"/><path class="cls-16" d="M247,36.67a1.15,1.15,0,0,1,2.26.13c.16,1.51-.9,4.14-1.65,3.88S246.84,38.05,247,36.67Z"/><rect class="cls-4" x="194.76" y="13.46" width="19.54" height="2.03" rx="0.65"/><rect class="cls-4" x="194.76" y="17.46" width="17.65" height="2.03" rx="0.65"/><rect class="cls-4" x="194.76" y="21.57" width="13.56" height="2.03" rx="0.65"/><path class="cls-16" d="M165,285.35s1.78.79,2.62.43a7.85,7.85,0,0,1,2.56-.43c.55,0,2.28-.62,2.25.06s-2.8,1.14-3.37,1.35,1.7,1.45,1.91,2-2.34,4.18-3.79,3.15-2.22-3.1-2.51-3.23a10.63,10.63,0,0,1-1.08-.71Z"/><path class="cls-16" d="M170.66,288.45s4.18,3.46,4.25,3.93-.16.68-.56.38l-4.15-3.23s4.19,4.94,4.33,5.31c.08.21-.32.66-.55.51s-4.68-4.79-4.68-4.79,3.89,4.62,3.91,5a.45.45,0,0,1-.76.31c-.32-.32-4.2-4.4-4.2-4.4s2.61,3.55,2.45,3.86-.43.59-1.07-.34-2.4-3-2.4-3Z"/><path class="cls-32" d="M136.19,360.45s-.17,5.67.64,6,3.88-1.63,5.23-3.58-1.69-6.49-2.19-9c-.21-1-2.59-2.93-3.75-2.39a5.66,5.66,0,0,0-2,1.93S137.06,355.44,136.19,360.45Z"/><path class="cls-33" d="M134.1,353.42a31.12,31.12,0,0,1,1.53,3.43c.52,1.51.61,5.67.94,5.95s2.89-1,3.24-2.56-.7-4.66-1.69-6.3a10.46,10.46,0,0,0-2-2.45A2.59,2.59,0,0,0,134.1,353.42Z"/><polygon class="cls-32" points="139.87 353.88 142.63 357.91 142.11 358.27 139.97 355.16 139.87 353.88"/><path class="cls-33" d="M124.19,317s1.57,8.35,1.57,10.35a18.4,18.4,0,0,0,1.82,7.68c1.27,2.43,6.85,19,7.33,20.89s.9,3.75.9,3.75,2.78-1.27,2.78-3.09-2.42-16.83-2.84-19.79-3.94-18.16-3.94-18.16Z"/><path class="cls-16" d="M133.09,316.41s-.55,7-.49,8.78.91,5.93.91,7,0,23.66-.9,26.39,2.53.85,2.53.85,6-14.85,6-21.05-.73-9.28-.31-13.21,3.09-9.14,3.09-9.14Z"/><path class="cls-16" d="M132.1,225.25s-5.57,5.61-3.67,12.83,4.94,7.26,8.3,4.16,5.34-6.38,5.78-10S137.19,220.24,132.1,225.25Z"/><path class="cls-16" d="M131,249.34a32.64,32.64,0,0,0,1.41-4c.1-.37.19-.76.27-1.14a7.36,7.36,0,0,0,.1-3.56c-.89-2.62,5.57-.81,5.57-.81s-1.26,6.94,0,9.29S131,249.34,131,249.34Z"/><path class="cls-34" d="M142.15,282.91s4,5.9,4.86,11.17-.75,13.1-1.41,16c-.58,2.52-1.44,10.35-1.5,11.19,0,0-12.59,3.27-20.82.67,0,0-1.28-12.93-1.76-17.71s2.87-20.94,2.87-20.94Z"/><path class="cls-35" d="M166.09,285.65l-2.26,2.56s-13.5-11-14.1-12.41-5.18-9.63-5.36-10.48c0,0-.88,2.27-1.6,4.47-.31.92-.7,2.59-.88,3.32a21.45,21.45,0,0,0,.26,9.8s-10.94,4.08-17.76.36c0,0,.73-5.93-.36-9.76s-6.78-17.19-6.78-17.19,3-5.61,6.18-6.7,6.73-1.9,6.73-1.9h7.46s4.92,1.28,6,1.62c2,.62,3.79,3.12,4.15,5.36s5.51,17.53,6.12,17.95S166.09,285.65,166.09,285.65Z"/><path class="cls-16" d="M121.88,278.38a54.3,54.3,0,0,0,5.59,0c.76-.19,5.78-2.37,6.08-4.52s-11.67,1.93-11.67,1.93Z"/><path class="cls-36" d="M129.77,365.46s-3.75,4.37-3.33,5.15,4.1,1.19,6.41.51,2.8-6.19,4-8.48c.5-1-.17-4-1.43-4.28a5.66,5.66,0,0,0-2.81.24S133.65,362.07,129.77,365.46Z"/><path class="cls-16" d="M132.61,358.6a31.51,31.51,0,0,1-1,3.67c-.55,1.52-3.13,4.85-3.05,5.29s2.92,1.05,4.18,0,2.42-4.12,2.68-6a14.15,14.15,0,0,0,.12-3.16A2.79,2.79,0,0,0,132.61,358.6Z"/><polygon class="cls-36" points="136.85 362.64 136.46 367.57 135.81 367.52 136.12 363.7 136.85 362.64"/><polygon class="cls-37" points="136.9 271.65 117.25 269.35 126.13 276.57 136.9 271.65"/><path class="cls-35" d="M122.47,275.61a15,15,0,0,0,0,3s-12.12-1.21-13.25-2.9a7.34,7.34,0,0,1-1.09-3.76Z"/><path class="cls-38" d="M133.92,229.28a45.4,45.4,0,0,0,4.31,6.58c1.66,1.74,1.47,3.11,1.47,3.11s6.44-7.95,1.84-12.75-10.53-2.87-12.26,1.33a21.14,21.14,0,0,0-1.1,9.32S128.23,232,133.92,229.28Z"/><path class="cls-38" d="M135.67,224.21s-.64-3.54,4.92-5,8.06,5,7.37,8.9-5.44,13.82-2.86,15.11,3.59-1.49,3.59-1.49-.81,4.87-4.39,3.74-3.11-9.05-2.57-12.2S135.67,224.21,135.67,224.21Z"/><path class="cls-35" d="M130.16,247.72a8.27,8.27,0,0,0,.46-1.84,86,86,0,0,1,8.82-.17s.15,2,.13,2.44S131.43,250,130.16,247.72Z"/><polygon class="cls-14" points="126.13 276.57 136.9 272.9 136.9 271.65 125.77 275.23 126.13 276.57"/><polygon class="cls-14" points="126.13 276.57 120.4 255.27 98.61 252.97 104.58 272.58 126.13 276.57"/><path class="cls-25" d="M137.47,241.53a6.81,6.81,0,0,1-5.05,3.79c.1-.37.19-.76.27-1.14C132.69,244.18,134.68,244.58,137.47,241.53Z"/><path class="cls-39" d="M144.37,265.32s-.88,2.27-1.6,4.47a39,39,0,0,1,.25-11.12A23.16,23.16,0,0,0,144.37,265.32Z"/><path class="cls-35" d="M136.54,223.47a9.74,9.74,0,0,1,5.91,4s-.4-2.91-2.36-3.75A5,5,0,0,0,136.54,223.47Z"/></g></g></svg>