<svg xmlns="http://www.w3.org/2000/svg" xmlns:xlink="http://www.w3.org/1999/xlink" viewBox="0 0 343.97 364.84"><defs><style>.cls-1{fill:url(#linear-gradient);}.cls-2{fill:#fff;}.cls-3{fill:url(#linear-gradient-2);}.cls-4{fill:#518afa;}.cls-5{fill:url(#linear-gradient-3);}.cls-6{fill:url(#linear-gradient-4);}.cls-7{fill:#696969;}.cls-8{fill:url(#linear-gradient-5);}.cls-9{fill:#1487e3;}.cls-10{fill:#e0e0e0;}.cls-11{fill:#ff8761;}.cls-12{fill:#eea886;}.cls-13{opacity:0.68;fill:url(#linear-gradient-6);}.cls-14{fill:#78c2ff;}.cls-15{fill:#ffc055;}.cls-16{fill:#ffc455;}.cls-17{fill:#202338;}.cls-18{fill:#1c4054;}.cls-19{fill:#eea987;}.cls-20{fill:#3d66ba;}.cls-21{fill:#252e3b;}.cls-22{fill:#a77860;}.cls-23{fill:#999;}.cls-24{fill:#e8e8e8;}.cls-25{fill:#3a3f47;}.cls-26{fill:#0c5087;}.cls-27{fill:#444c94;}.cls-28{fill:#303669;}</style><linearGradient id="linear-gradient" x1="18.88" y1="337.78" x2="225.94" y2="337.78" gradientUnits="userSpaceOnUse"><stop offset="0" stop-color="#ff9f55"/><stop offset="1" stop-color="#ffd255"/></linearGradient><linearGradient id="linear-gradient-2" x1="-77.08" y1="363.41" x2="129.97" y2="363.41" gradientUnits="userSpaceOnUse"><stop offset="0" stop-color="#e37e30"/><stop offset="1" stop-color="#e8a12e"/></linearGradient><linearGradient id="linear-gradient-3" x1="-7.42" y1="165.91" x2="265.94" y2="165.91" gradientTransform="translate(246.06 331.83) rotate(-180)" xlink:href="#linear-gradient"/><linearGradient id="linear-gradient-4" x1="8.7" y1="154.39" x2="236.93" y2="154.39" gradientTransform="translate(245.63 308.78) rotate(-180)" gradientUnits="userSpaceOnUse"><stop offset="0" stop-color="#404b61"/><stop offset="0.49" stop-color="#3c4860"/><stop offset="1" stop-color="#2f3e5c"/></linearGradient><linearGradient id="linear-gradient-5" x1="58.93" y1="297.56" x2="187.13" y2="297.56" xlink:href="#linear-gradient"/><linearGradient id="linear-gradient-6" x1="197.06" y1="192.27" x2="343.97" y2="192.27" gradientUnits="userSpaceOnUse"><stop offset="0" stop-color="#343d4f"/><stop offset="0.46" stop-color="#30394c"/><stop offset="0.95" stop-color="#232d41"/><stop offset="1" stop-color="#212b40"/></linearGradient></defs><title>CVB</title><g id="Layer_2" data-name="Layer 2"><g id="Слой_1" data-name="Слой 1"><polygon class="cls-1" points="212.99 313.56 122.41 313.56 31.84 313.56 18.88 361.99 122.41 361.99 225.94 361.99 212.99 313.56"/><path class="cls-2" d="M33.27,326.43H45.12a.72.72,0,0,1,.78.8l-1.15,5.15a.77.77,0,0,1-.78.55h-12a.71.71,0,0,1-.78-.82L32.5,327A.76.76,0,0,1,33.27,326.43Z"/><polygon class="cls-2" points="50.55 326.43 59.51 326.43 58.32 332.93 49.19 332.93 50.55 326.43"/><polygon class="cls-2" points="63.99 326.43 72.95 326.43 72.02 332.93 62.89 332.94 63.99 326.43"/><polygon class="cls-2" points="77.43 326.43 86.39 326.43 85.71 332.93 76.58 332.93 77.43 326.43"/><polygon class="cls-2" points="90.88 326.43 99.83 326.43 99.41 332.93 90.28 332.93 90.88 326.43"/><polygon class="cls-2" points="104.31 326.43 113.28 326.43 113.1 332.93 103.97 332.94 104.31 326.43"/><polygon class="cls-2" points="211.87 326.43 198.43 326.43 199.88 332.93 213.57 332.93 211.87 326.43"/><polygon class="cls-2" points="193.95 326.43 184.99 326.43 186.18 332.93 195.31 332.93 193.95 326.43"/><polygon class="cls-2" points="180.51 326.43 171.55 326.43 172.48 332.93 181.62 332.94 180.51 326.43"/><polygon class="cls-2" points="167.07 326.43 158.11 326.43 158.79 332.93 167.92 332.93 167.07 326.43"/><polygon class="cls-2" points="153.63 326.43 144.67 326.43 145.09 332.93 154.22 332.93 153.63 326.43"/><polygon class="cls-2" points="140.19 326.43 131.22 326.43 131.4 332.93 140.53 332.94 140.19 326.43"/><polygon class="cls-2" points="117.75 326.43 126.72 326.43 126.86 332.93 117.75 332.93 117.75 326.43"/><polygon class="cls-2" points="29.32 337.78 48.05 337.78 46.98 344.49 27.9 344.49 29.32 337.78"/><polygon class="cls-2" points="214.79 337.78 191.65 337.78 192.97 344.49 216.55 344.49 214.79 337.78"/><polygon class="cls-2" points="187.02 337.78 177.76 337.78 178.81 344.49 188.25 344.49 187.02 337.78"/><polygon class="cls-2" points="173.13 337.78 163.87 337.78 164.66 344.49 174.1 344.49 173.13 337.78"/><polygon class="cls-2" points="159.25 337.78 149.99 337.78 150.52 344.49 159.95 344.49 159.25 337.78"/><polygon class="cls-2" points="145.36 337.78 136.1 337.78 136.37 344.49 145.8 344.49 145.36 337.78"/><polygon class="cls-2" points="26.53 349.74 45.67 349.74 44.27 356.4 24.78 356.4 26.53 349.74"/><polygon class="cls-2" points="50.45 349.74 60.02 349.74 58.89 356.4 49.15 356.4 50.45 349.74"/><polygon class="cls-2" points="64.81 349.74 74.38 349.74 136.59 349.74 136.85 356.4 63.76 356.4 64.81 349.74"/><polygon class="cls-2" points="141.38 349.74 150.95 349.74 151.47 356.4 141.73 356.4 141.38 349.74"/><polygon class="cls-2" points="155.73 349.74 165.3 349.74 166.09 356.4 156.34 356.4 155.73 349.74"/><polygon class="cls-2" points="170.09 349.74 179.66 349.74 180.71 356.4 170.96 356.4 170.09 349.74"/><polygon class="cls-2" points="184.44 349.74 194.02 349.74 195.32 356.4 185.58 356.4 184.44 349.74"/><polygon class="cls-2" points="198.8 349.74 217.94 349.74 219.69 356.4 200.2 356.4 198.8 349.74"/><polygon class="cls-2" points="131.49 337.78 122.31 337.78 122.31 344.49 131.67 344.49 131.49 337.78"/><polygon class="cls-2" points="117.61 337.78 108.35 337.78 108.09 344.49 117.52 344.49 117.61 337.78"/><polygon class="cls-2" points="103.72 337.78 94.46 337.78 93.94 344.49 103.37 344.49 103.72 337.78"/><polygon class="cls-2" points="89.83 337.78 80.58 337.78 79.78 344.49 89.22 344.49 89.83 337.78"/><polygon class="cls-2" points="75.95 337.78 66.69 337.78 65.64 344.49 75.07 344.49 75.95 337.78"/><polygon class="cls-2" points="62.06 337.78 52.8 337.78 51.49 344.49 60.92 344.49 62.06 337.78"/><polygon class="cls-2" points="33.7 322.34 35.23 316.53 39.58 316.53 38.16 322.34 33.7 322.34"/><polygon class="cls-2" points="43.93 316.53 52.63 316.53 51.41 322.34 42.56 322.34 43.93 316.53"/><polygon class="cls-2" points="56.98 316.53 65.68 316.53 64.69 322.34 55.84 322.34 56.98 316.53"/><polygon class="cls-2" points="70.03 316.53 78.73 316.53 77.97 322.34 69.12 322.34 70.03 316.53"/><polygon class="cls-2" points="83.08 316.53 91.78 316.53 91.25 322.34 82.4 322.34 83.08 316.53"/><polygon class="cls-2" points="96.13 316.53 104.83 316.53 104.53 322.34 95.68 322.34 96.13 316.53"/><polygon class="cls-2" points="109.18 316.53 117.89 316.53 117.81 322.34 108.95 322.34 109.18 316.53"/><polygon class="cls-2" points="122.23 316.53 130.94 316.53 131.09 322.34 122.23 322.34 122.23 316.53"/><polygon class="cls-2" points="135.29 316.53 143.99 316.53 144.37 322.34 135.52 322.34 135.29 316.53"/><polygon class="cls-2" points="148.34 316.53 157.04 316.53 157.65 322.34 148.79 322.34 148.34 316.53"/><polygon class="cls-2" points="161.39 316.53 170.09 316.53 170.93 322.34 162.07 322.34 161.39 316.53"/><polygon class="cls-2" points="174.44 316.53 183.14 316.53 184.21 322.34 175.35 322.34 174.44 316.53"/><polygon class="cls-2" points="187.49 316.53 196.19 316.53 197.49 322.34 188.63 322.34 187.49 316.53"/><polygon class="cls-2" points="200.54 316.53 209.25 316.53 210.77 322.34 201.91 322.34 200.54 316.53"/><rect class="cls-3" x="18.88" y="361.99" width="207.06" height="2.86"/><rect class="cls-4" x="108.78" y="211.01" width="28.5" height="86.55" transform="translate(246.06 508.58) rotate(180)"/><rect class="cls-5" y="79.12" width="246.06" height="173.59" rx="8.66" transform="translate(246.06 331.83) rotate(180)"/><rect class="cls-6" x="8.7" y="87.62" width="228.23" height="133.53" transform="translate(245.63 308.78) rotate(180)"/><path class="cls-7" d="M115.09,238A7.94,7.94,0,1,0,123,230,7.95,7.95,0,0,0,115.09,238Z"/><rect class="cls-8" x="58.93" y="294.3" width="128.2" height="6.53"/><rect class="cls-9" x="100.88" y="196.68" width="12.25" height="2.62"/><rect class="cls-10" x="90.53" y="117.55" width="29.57" height="2.62"/><rect class="cls-9" x="117.02" y="196.68" width="23.12" height="2.62"/><rect class="cls-9" x="113.46" y="176.97" width="23.12" height="2.62"/><rect class="cls-9" x="107.01" y="127.41" width="23.12" height="2.62"/><rect class="cls-11" x="115.6" y="97.85" width="23.12" height="2.62"/><rect class="cls-10" x="102.77" y="97.85" width="8.46" height="2.62"/><rect class="cls-10" x="126.06" y="107.7" width="35.33" height="2.62"/><rect class="cls-10" x="92.16" y="186.82" width="35.33" height="2.62"/><rect class="cls-9" x="111.24" y="107.7" width="11.56" height="2.62"/><rect class="cls-11" x="122.8" y="117.55" width="11.56" height="2.62"/><rect class="cls-11" x="97" y="176.97" width="11.56" height="2.62"/><rect class="cls-9" x="83.58" y="107.7" width="24.6" height="2.62"/><path class="cls-12" d="M258.88,210.7s-.57-2.15,0-3.08a9.28,9.28,0,0,0,1-2.91c.12-.63,1.21-2.55.41-2.59s-1.95,3.09-2.32,3.72-1.37-2.12-2-2.43-5.46,2.21-4.53,4,3.21,2.92,3.31,3.27a10.39,10.39,0,0,0,.61,1.34Z"/><path class="cls-12" d="M256.39,203.76s-3.23-5.22-3.77-5.35-.85.09-.57.6,3,5.16,3,5.16-5-5.41-5.39-5.62c-.24-.12-.85.29-.73.58s4.71,6,4.71,6-4.67-5-5.07-5.11-.84.45-.53.85l4.35,5.35s-3.67-3.42-4.07-3.27c-.25.09-.79.42.18,1.27s3,3.13,3,3.13Z"/><rect class="cls-13" x="197.06" y="176.36" width="146.91" height="31.83" rx="5.16"/><rect class="cls-10" x="204.91" y="186.12" width="23.79" height="2.43"/><rect class="cls-10" x="233.33" y="186.12" width="16.89" height="2.43"/><rect class="cls-10" x="233.33" y="195.29" width="15.77" height="2.44"/><rect class="cls-14" x="317.92" y="186.12" width="16.89" height="2.43"/><rect class="cls-9" x="254.76" y="186.12" width="21.52" height="2.43"/><rect class="cls-15" x="292.19" y="186.12" width="21.52" height="2.43"/><rect class="cls-10" x="280.26" y="186.12" width="7.88" height="2.43"/><rect class="cls-14" x="204.91" y="195.29" width="12.32" height="2.44"/><rect class="cls-9" x="220.26" y="195.29" width="3.98" height="2.44"/><rect class="cls-10" x="301.93" y="195.29" width="32.88" height="2.44"/><rect class="cls-16" x="227.16" y="195.29" width="4.06" height="2.44"/><rect class="cls-9" x="288.13" y="195.29" width="10.76" height="2.44"/><rect class="cls-14" x="262.39" y="195.29" width="22.89" height="2.44"/><rect class="cls-10" x="251.27" y="195.29" width="7.88" height="2.44"/><path class="cls-17" d="M255.08,318.86S252,322,249.3,322.31s-5.77,1.34-6.13,3.36,7.91,4.15,11.17,2.57c4.86-2.35,6.28-1.41,7-2.85s.6-6.41.71-6.89S255.08,318.86,255.08,318.86Z"/><path class="cls-17" d="M309.94,310s-.9,4.27-2.88,5.9-4,4.07-3.21,6,7.8,1.7,10.32-3.4c1.59-3.22,3.45-3.78,3.3-5.4s-2.6-5.09-2.76-5.56S309.94,310,309.94,310Z"/><path class="cls-18" d="M276.07,249S265.36,271.12,263,276.74A80.65,80.65,0,0,0,258.1,295c-.39,4.6-4.8,23.31-5.07,24.66s9.33.54,9.33.54,8.36-31.89,10.58-36.41c1.48-3,12.59-23.1,13.57-21.85s6.95,16.25,7.68,19.85,14.4,30.37,14.4,30.37,6.39-.47,7.64-2.9c0,0-10.2-27.13-11.33-32.07-.58-2.51-2.69-18.34-5.36-30.48C298.17,240.44,276.07,249,276.07,249Z"/><path class="cls-4" d="M303.18,215.19s-3.68,11.08-3.6,13.71S297.54,216,303.18,215.19Z"/><path class="cls-4" d="M277.05,219.29a27.76,27.76,0,0,1-1.32,3.37h0c-.32.67-.69,1.38-1.11,2.08l-.23.36a13.08,13.08,0,0,1-1,1.34,5.94,5.94,0,0,1-3.95,2.46c-3.15.23-14.45-17-14.45-17l5.4-2.45s7.15,10.32,8.26,9.75,2.26-4.76,2.26-4.76c1.31-.72,3.32,1.29,4.67,2.94l.25.32C276.58,218.56,277.05,219.29,277.05,219.29Z"/><path class="cls-4" d="M300.2,248.46c-6.12,5.47-25.66,3.66-25.66,3.66.28-.68,2.26-21.05,1.57-25.65s-.3-8.52-.91-8.69-4.82-1.65-4.82-1.65,2.24-7.1,3.17-8.65,7.63-3.79,7.63-3.79a26.61,26.61,0,0,1,10.71-1.21c9.21,1.09,10.32,3.8,10.32,3.8L300.07,220v.15c0,.31,0,1.07-.07,2.13-.16,4.4-.49,13.82-.53,16.06A94.36,94.36,0,0,0,300.2,248.46Z"/><path class="cls-19" d="M293.41,202.73a14.13,14.13,0,0,1-1.19,1.83c-2.87,3.7-6.2,3.57-6.2,3.57a4.44,4.44,0,0,1-3.7-2.68,6.77,6.77,0,0,1-.59-2l1.21-.43a5.45,5.45,0,0,0,.18-1.23c0-.27,0-.54,0-.82s0-.49,0-.73a2.81,2.81,0,0,1,0-.29c0-1-.12-1.89-.12-1.89s8.73-4.71,8-1.39a8.09,8.09,0,0,0,0,3.6,2.75,2.75,0,0,0,1.13,1.83C292.93,202.54,293.41,202.73,293.41,202.73Z"/><path class="cls-12" d="M268.35,209.45a1.72,1.72,0,0,1-.53-.94c-.1-.89.79-2-.23-2.84s-4.68,1.65-5,2.42.63,2.25,3,3.68S268.35,209.45,268.35,209.45Z"/><path class="cls-12" d="M267.89,206a36.39,36.39,0,0,0-2-3.5c-1.05-1.57-2.52-3.23-3-2.94s.75,1.56,1.67,3.18.42,1.35.42,1.35.13,0-1.14-1.41-3-3.2-3.42-2.86-.29.22.11.86c-.32-.32-.45-.28-.61-.16-.81.6.81,3.2,1.45,4.23-.5-.79-.95-1.31-1.21-.64s2.17,4.33,2.93,5.69S267.89,206,267.89,206Z"/><path class="cls-4" d="M303,216.79C306.93,212,302,206,302,206c-2.9-2.46-9.22,7.88-10,8.89s-6.86,6.43-8.55,8.25c-.86.93-4.48-3-6.14-4.63-1-1-8.78-10.08-8.78-10.08L263.64,212c.45-.33,15.86,19.85,18.72,20C282.36,232,293.43,228.41,303,216.79Z"/><path class="cls-20" d="M274.62,224.74l-.23.36a13.08,13.08,0,0,1-1,1.34c-.75-.88-3.55-7.23-3.6-7.33Z"/><path class="cls-20" d="M298.63,221.48a77.65,77.65,0,0,1-7.64,6.09c-2.69,1.64-7.18,3.88-7.68,4.07C283.31,231.64,295.2,229.32,298.63,221.48Z"/><path class="cls-12" d="M278.38,185.92s-1.89,3.51-.95,4.06c.77.45-.91,3.9-1.13,4.46s1.41,1,1.75,1.34,1.37,4.82,2.71,4.95,7.37-2,9-3.67,3-9.42,1.9-12.67S281.73,179.79,278.38,185.92Z"/><path class="cls-21" d="M278,186.68a5.38,5.38,0,0,1,1.57-6.6c3.52-2.82,10,2.12,10.72,2.31s4.88.47,2.78,7.75c-1.79,6.24-2,6.5-2,6.5s-1.34-3.62-2.1-4.17c-1.19-.86-3.79-.65-3.79-.65s1.24-3.29-.7-3.76S280,186,278,186.68Z"/><path class="cls-12" d="M287.21,189.94c.18-.46.73-2.4,2.39-1.26s-1,4.8-1.33,4.84S285.78,193.73,287.21,189.94Z"/><path class="cls-22" d="M289.6,197.23s-1.42,2.8-6.48,4.6c0-.27,0-.54,0-.82s0-.49,0-.73A21.87,21.87,0,0,0,289.6,197.23Z"/><path class="cls-23" d="M104.83,129.11a29.08,29.08,0,0,0,.9,4.53c.51,1.39,3.28,4.59,2.11,7.67-1.27,3.34-6.82.12-9.08-.9s-1.75-2.86-2-5.12-1.35-2.33-.94-3.92,2.88-4.63,2.88-4.63Z"/><path class="cls-12" d="M99.78,125.09s-1.42,2-1.38,2,6.09,3.74,6.51,2.55a12.54,12.54,0,0,0,.47-2.33Z"/><path class="cls-23" d="M79.29,131.34a22.77,22.77,0,0,0-3.5,4.1c-1.65,2.48-6.05,2.61-6.24,6s6,3.5,9.22,2.39,3.72-4.41,5.68-5.24,3-1.5,2.82-3.11A19.65,19.65,0,0,0,86,131.24a14.05,14.05,0,0,1-1.93.46A16.06,16.06,0,0,1,79.29,131.34Z"/><path class="cls-9" d="M101.48,39.47s-1.24,7.38-2.24,12.25h0a29.69,29.69,0,0,1-1,4,56.57,56.57,0,0,1-5.46,6.05c-5,5.15-11.61,11.63-11.61,11.63l-2.58-4.9s5.87-6.88,9.84-11.47c1.84-2.13,3.28-3.76,3.54-4,.83-.74,1.8-8.07,3.16-14.11a24.28,24.28,0,0,1,4.07-9.38Z"/><path class="cls-12" d="M92.78,61.81c-5,5.15-11.61,11.63-11.61,11.63l-2.58-4.9s5.87-6.88,9.84-11.47A8.36,8.36,0,0,1,92.78,61.81Z"/><path class="cls-12" d="M79.58,129.08l-.29,2.26a11.19,11.19,0,0,0,6.75-.1l.07-2Z"/><path class="cls-9" d="M125.14,72.44c.19.66-34,0-34,0s9.45-6.88,10.07-8.72-2.41-12.87-2.8-16.45c-.32-2.88-1.11-15.73.78-17.69s9.11-4.2,9.11-4.2l10.38.39a16.68,16.68,0,0,1,2.94.92c1.23.57,8.24,3.07,9.37,6.57S124,48,124,48s0,.51,0,1.33h0c0,1.11-.08,2.79-.12,4.61,0,2.36-.1,5-.1,6.86A68.25,68.25,0,0,0,125.14,72.44Z"/><path class="cls-24" d="M125.14,72.44s4.65,6.83,4.72,11.49-8.25,20.27-9.51,22.51c-3.78,6.71-14.16,21.19-14.16,21.19s-1.79,0-7.37-2.21c0,0,6.9-19.13,7.78-21.11,3.71-8.43,5.78-14.4,4.53-15.85s-4.65-2.89-5.63-3.74S87.36,88,85.56,88.43c-4.65,1.2-2.53,9.3-1.5,12.93,1.72,6.08,3.23,28,3.23,28s-3.32,1.42-8.87.22c0,0-10.91-39.61-11.26-43.55s-.52-10.43,26.35-15.37Z"/><path class="cls-12" d="M111.16,2.81s-9-2-7,9.32,4.23,12.24,9.67,9.89,4.95-9.62,5.22-13.19S114,2.93,111.16,2.81Z"/><path class="cls-12" d="M108.77,28.29s4,4.24,10.31.39c0,0-1.42-9.18-.67-13.64S110.17,22,110.17,22s.2.49.22,1.1a13.39,13.39,0,0,1-.1,1.81C110.11,26.36,109.64,27.93,108.77,28.29Z"/><path class="cls-25" d="M118.65,14.66s-.23-3.58-1.53-3.69-1.51,1.33-1.51,1.33l-1.32.25s.42-3.14-.89-3.69-8.44,1.73-9.49.81-.56-7.28,1.34-8.15,7.12-2.82,11-.22c0,0,3-.34,3.43,2.07S119.47,12.86,118.65,14.66Z"/><path class="cls-22" d="M110.29,24.87c6.51-2,7-5.92,7-6-2.14,3.69-6.91,4.18-6.91,4.18A13.39,13.39,0,0,1,110.29,24.87Z"/><path class="cls-12" d="M121.74,26.74s-4.77,9.49-12.47,8.88-1.31-10.15-1-10.24S116.21,23.41,121.74,26.74Z"/><path class="cls-9" d="M87.24,72s23.6,2.91,37.9.48L97.82,69S97.66,69.73,87.24,72Z"/><path class="cls-12" d="M104.89,68l-1.76.89s.4,2.8,1.37,3.64l2-.5S106.06,68.92,104.89,68Z"/><path class="cls-9" d="M132.2,62.23c-.35.41-5,2.28-10.23,4.3h0c-7.16,2.76-15.24,5.36-15.24,5.36L104.89,68s8.46-4.59,14.18-7.82c2.7-1.52,4.78-2.74,5.08-3,.92-.87,1.16-2.28.48-4.72s-2.23-13.7-2.41-15,.44-4.81,3.73-5a9.84,9.84,0,0,1,5,.76s.82.34,1.43,8.3S133,61.27,132.2,62.23Z"/><path class="cls-26" d="M124,49.35h0c0,1.11-.08,2.79-.12,4.61a23,23,0,0,1-1.32-14.22C122.18,41.87,124,49.25,124,49.35Z"/><path class="cls-26" d="M99.24,51.72h0a29.69,29.69,0,0,1-1,4c-1.09-5.3-.11-12.08-.11-12.08A68,68,0,0,0,99.24,51.72Z"/><path class="cls-12" d="M122,66.53h0c-7.16,2.76-15.5,5.45-15.5,5.45l-1.58-4s8.46-4.59,14.18-7.82C119.07,60.13,121.15,61.15,122,66.53Z"/><polygon class="cls-27" points="104.38 72.21 70.84 71.72 87.77 80.32 104.38 72.21"/><polygon class="cls-28" points="87.77 80.32 104.38 73.89 104.38 72.21 86.46 78.68 87.77 80.32"/><path class="cls-12" d="M103.51,68.9s-2.09-.32-3.54-.66c-1.12-.26-3.91.1-4.62.82s-3,5.73-3.39,6,.22,1,1,.65c0,0,.69,2.2,2.38,1.38s2.86-2.62,3.75-2.93,6.07-1.91,6.07-1.91S104.85,68.37,103.51,68.9Z"/><path class="cls-12" d="M95.86,68.73a14.53,14.53,0,0,0-1.69.94c-.35.29-1.78,1.36-2.12,1.61s.52,1,3.06-.14S95.86,68.73,95.86,68.73Z"/><polygon class="cls-28" points="87.77 80.32 77.8 53.08 45.63 53.6 55.14 78.71 87.77 80.32"/><path class="cls-4" d="M67.5,65.13c1,2,.69,4.1-.66,4.77s-3.24-.37-4.22-2.33-.68-4.1.67-4.77S66.52,63.17,67.5,65.13Z"/><path class="cls-12" d="M115.64,10.78a1.15,1.15,0,0,1,2.25.14c.16,1.5-.89,4.13-1.65,3.87S115.47,12.16,115.64,10.78Z"/></g></g></svg>